<svg id="Camada_1" data-name="Camada 1" xmlns="http://www.w3.org/2000/svg" viewBox="0 0 30 30"><defs><style>.cls-1{fill:#7fd1f5;}</style></defs><title>academic</title><path class="cls-1" d="M30,13a2,2,0,0,1-1.12,1.12c-1.21.59-2.41,1.19-3.62,1.77a.47.47,0,0,0-.31.48c0,2.16,0,4.31,0,6.47a1.25,1.25,0,0,1-.35.92,12,12,0,0,1-6.94,4A12.77,12.77,0,0,1,7.17,25.44a18.9,18.9,0,0,1-1.95-1.85A1,1,0,0,1,5,22.94c0-2.23,0-4.45,0-6.68a.37.37,0,0,0-.24-.4c-.52-.23-1-.49-1.56-.75,0,.1,0,.17,0,.24,0,1.47,0,3,0,4.42a.42.42,0,0,0,.15.3,1.66,1.66,0,0,1,0,3,.24.24,0,0,0-.09.07L4.73,28H.42c.1-.35.2-.68.31-1,.38-1.21.75-2.42,1.14-3.63.06-.18.06-.27-.13-.39a1.64,1.64,0,0,1,.05-2.86.35.35,0,0,0,.2-.34q0-2.52,0-5a.32.32,0,0,0-.21-.33,9.59,9.59,0,0,1-1.06-.54,1.27,1.27,0,0,1-.66-1.49,1.49,1.49,0,0,1,.81-.88L4,10l9-4.31a4.64,4.64,0,0,1,4.23,0c3.84,1.86,7.67,3.74,11.51,5.61A2,2,0,0,1,30,12.56ZM4.62,14.49l0,.06.25.13c2.88,1.38,5.76,2.77,8.64,4.14a3.59,3.59,0,0,0,3.24,0L24.6,15c1.25-.61,2.49-1.22,3.72-1.84a2.65,2.65,0,0,0,.53-.42,3.14,3.14,0,0,0-.52-.38L16.78,6.69a3.65,3.65,0,0,0-3.3,0L4.76,10.87,1.42,12.48a1.48,1.48,0,0,0-.3.26,1.37,1.37,0,0,0,.3.29c.38.2.77.38,1.16.55a.65.65,0,0,0,.31,0l1.65-.18,5.64-.67,4.65-.55a.6.6,0,0,1,.43.09.85.85,0,0,1,.23.53c0,.26-.22.4-.48.43l-2.81.34Zm19.2,2-.31.15c-2.09,1-4.17,2-6.25,3.06a4.72,4.72,0,0,1-4.31,0L6.44,16.63l-.31-.14a1,1,0,0,0,0,.12c0,2.06,0,4.12,0,6.17a.48.48,0,0,0,.14.33,17.76,17.76,0,0,0,1.64,1.5A11.69,11.69,0,0,0,18.1,26.52a11,11,0,0,0,5.53-3.33.72.72,0,0,0,.2-.52c0-2,0-3.89,0-5.83Z"/></svg>