<svg id="Camada_1" data-name="Camada 1" xmlns="http://www.w3.org/2000/svg" viewBox="0 0 30 30"><defs><style>.cls-1{fill:#7fd1f5;}.cls-2{fill:none;stroke:#7fd1f5;stroke-miterlimit:10;stroke-width:0.75px;}</style></defs><title>article-aproved</title><path class="cls-1" d="M4.64,28.49A.58.58,0,0,1,4.29,28L1.89,7.76A.73.73,0,0,1,2,7.21l3.16-4a.69.69,0,0,1,.52-.29L18.09,1.44c.5-.06.63.05.69.56q1.16,9.75,2.32,19.5c.17,1.46.34,2.93.52,4.39a.6.6,0,0,1-.21.61Zm.45-.9,15.67-1.86L18,2.3,6.07,3.71l0,.29c.11,1,.22,1.91.34,2.87,0,.48,0,.62-.54.68L3,7.89l-.27,0ZM5.32,4.45,3.31,7l2.28-.27Z"/><path class="cls-1" d="M6.92,20l.41,3.48L11,23.06l0-.28c-.07-.65-.16-1.3-.23-2a.4.4,0,1,1,.8-.09c.11.88.21,1.75.31,2.62a.4.4,0,0,1-.39.5l-4.39.52a.43.43,0,0,1-.5-.36c0-.05,0-.1,0-.15-.16-1.33-.31-2.66-.47-4-.05-.43.07-.59.5-.64l4.15-.49a.44.44,0,0,1,.28,0c.13.08.29.2.31.33a.57.57,0,0,1-.2.4c-.06.07-.21.07-.32.08L7.21,20Z"/><path class="cls-1" d="M11,10.77,5.7,11.4c-.42,0-.63-.05-.67-.33s.15-.43.58-.49L16.27,9.32a1.93,1.93,0,0,1,.34,0,.4.4,0,0,1,.08.76,1.55,1.55,0,0,1-.31.06Z"/><path class="cls-1" d="M11.8,17.24l-5.34.64c-.41.05-.62-.06-.66-.34s.15-.43.56-.48l10.71-1.27h.29a.36.36,0,0,1,.35.35.36.36,0,0,1-.25.4,1.16,1.16,0,0,1-.31.07Z"/><path class="cls-1" d="M11.85,6l4-.47a1.14,1.14,0,0,1,.32,0,.36.36,0,0,1,.3.37.36.36,0,0,1-.25.38,1.4,1.4,0,0,1-.28.06l-8,1a1.22,1.22,0,0,1-.27,0A.36.36,0,0,1,7.29,7a.36.36,0,0,1,.26-.42.94.94,0,0,1,.29-.06Z"/><path class="cls-1" d="M14.63,12.53l-2.08.25c-.11,0-.24,0-.31,0s-.28-.2-.29-.32a.71.71,0,0,1,.19-.4c0-.06.15-.07.23-.08l4.28-.51a.43.43,0,0,1,.26,0c.12.09.26.22.27.34a.63.63,0,0,1-.19.38c-.06.07-.2.07-.3.09Z"/><path class="cls-1" d="M7.89,12.5,10,12.26c.1,0,.24,0,.31,0s.27.22.28.34-.11.28-.21.39a.71.71,0,0,1-.31.08l-4.09.48-.09,0c-.32,0-.53-.11-.55-.36s.14-.42.45-.46Z"/><path class="cls-1" d="M8.14,14.66l2.08-.24c.11,0,.26,0,.34,0a.56.56,0,0,1,.24.35c0,.11-.09.26-.19.36a.56.56,0,0,1-.3.08l-4.16.5a.52.52,0,0,1-.31,0,.63.63,0,0,1-.28-.33.59.59,0,0,1,.2-.38.47.47,0,0,1,.3-.09Z"/><path class="cls-1" d="M14.8,13.87l2.05-.24c.11,0,.24,0,.31,0a.63.63,0,0,1,.28.33.6.6,0,0,1-.19.39c-.07.07-.21.07-.32.09l-4.12.48a.47.47,0,0,1-.31,0c-.12-.08-.28-.21-.3-.34a.66.66,0,0,1,.21-.39.56.56,0,0,1,.3-.08Z"/><path class="cls-1" d="M15.4,19l-2.08.24c-.11,0-.24,0-.31,0s-.28-.21-.29-.34.11-.27.21-.39a.5.5,0,0,1,.26-.07L17.37,18a.41.41,0,0,1,.29,0,.67.67,0,0,1,.29.31.31.31,0,0,1-.19.41.79.79,0,0,1-.31.08Z"/><path class="cls-1" d="M15.56,20.35l2-.24a1.38,1.38,0,0,1,.29,0,.37.37,0,0,1,.34.34.35.35,0,0,1-.23.41,1,1,0,0,1-.29.07l-4.13.49a1,1,0,0,1-.3,0,.39.39,0,0,1-.06-.75.94.94,0,0,1,.29-.06Z"/><path class="cls-1" d="M14.55,23.48c-.28,0-.55.08-.83.1s-.48-.1-.51-.34a.41.41,0,0,1,.4-.47c.56-.07,1.12-.14,1.69-.19a.39.39,0,0,1,.48.36.4.4,0,0,1-.4.44Z"/><rect class="cls-2" x="22.02" y="3.19" width="4" height="4"/><rect class="cls-2" x="22.02" y="9.36" width="4" height="4"/><polyline class="cls-2" points="23.16 4.45 24.18 5.73 28.05 2.3"/><polyline class="cls-2" points="23.16 10.8 24.18 12.08 28.05 8.64"/></svg>