<svg id="Camada_1" data-name="Camada 1" xmlns="http://www.w3.org/2000/svg" viewBox="0 0 30 30"><defs><style>.cls-1{fill:#7fd1f5;}.cls-2{fill:none;stroke:#7fd1f5;stroke-miterlimit:10;stroke-width:0.75px;}</style></defs><title>article-published</title><path class="cls-1" d="M5,28.5A.58.58,0,0,1,4.62,28L2.22,7.77a.73.73,0,0,1,.15-.55q1.59-2,3.16-4a.73.73,0,0,1,.52-.29L18.43,1.45c.5-.05.62.05.68.56q1.17,9.75,2.32,19.5c.17,1.47.34,2.93.52,4.39a.58.58,0,0,1-.21.61Zm.45-.89,15.67-1.86L18.31,2.31,6.4,3.73l0,.28c.11,1,.22,1.91.34,2.87,0,.48,0,.62-.54.68L3.35,7.9l-.27,0ZM5.65,4.47,3.64,7l2.28-.27Z"/><path class="cls-1" d="M7.25,20l.42,3.48,3.66-.44,0-.27c-.07-.66-.15-1.31-.23-2a.4.4,0,0,1,.35-.48.4.4,0,0,1,.45.39c.11.87.21,1.74.31,2.62a.4.4,0,0,1-.39.49l-4.38.52A.4.4,0,0,1,6.9,24a.8.8,0,0,1,0-.15c-.15-1.33-.31-2.66-.47-4-.05-.43.07-.59.51-.64l4.14-.49a.57.57,0,0,1,.29,0c.12.08.28.2.3.33a.57.57,0,0,1-.2.4c-.06.07-.21.07-.32.08L7.54,20Z"/><path class="cls-1" d="M11.34,10.78,6,11.41c-.42.05-.63-.05-.67-.32s.15-.44.58-.49L16.6,9.33a1.93,1.93,0,0,1,.34,0,.4.4,0,0,1,.08.76,1.55,1.55,0,0,1-.31.06Z"/><path class="cls-1" d="M12.13,17.26l-5.34.63c-.41.05-.62-.06-.66-.33s.15-.44.56-.49L17.4,15.8a1.4,1.4,0,0,1,.29,0,.39.39,0,0,1,.1.76,1.7,1.7,0,0,1-.31.06Z"/><path class="cls-1" d="M12.18,6l4-.47a1.14,1.14,0,0,1,.32,0,.36.36,0,0,1,.3.37.35.35,0,0,1-.24.38l-.29.06-8,1H8A.37.37,0,0,1,7.62,7a.36.36,0,0,1,.26-.43,1.36,1.36,0,0,1,.29-.06Z"/><path class="cls-1" d="M15,12.54l-2.08.25c-.1,0-.24,0-.31,0s-.28-.2-.29-.31a.73.73,0,0,1,.19-.41c0-.06.15-.07.23-.08l4.28-.5c.09,0,.21,0,.27,0s.25.21.26.33a.54.54,0,0,1-.19.38c-.06.07-.2.07-.3.09Z"/><path class="cls-1" d="M8.22,12.51l2.06-.24c.1,0,.24,0,.31,0s.27.22.29.34a.62.62,0,0,1-.22.39.51.51,0,0,1-.31.08l-4.09.49H6.17c-.32,0-.53-.11-.55-.36s.14-.42.45-.46Z"/><path class="cls-1" d="M8.47,14.67l2.08-.24a.64.64,0,0,1,.34,0,.62.62,0,0,1,.25.35.58.58,0,0,1-.2.36.56.56,0,0,1-.3.08l-4.16.5a.52.52,0,0,1-.31,0,.63.63,0,0,1-.28-.33.59.59,0,0,1,.2-.38c.06-.07.19-.07.3-.09Z"/><path class="cls-1" d="M15.13,13.88l2-.24c.11,0,.24,0,.31,0a.63.63,0,0,1,.28.33.58.58,0,0,1-.19.39c-.07.07-.21.07-.32.09L13.14,15a.54.54,0,0,1-.31,0c-.12-.08-.28-.21-.29-.33s.1-.29.2-.4.2-.06.31-.08Z"/><path class="cls-1" d="M15.73,19l-2.08.24c-.11,0-.24,0-.31,0s-.28-.22-.29-.34.11-.28.21-.4a.5.5,0,0,1,.26-.07L17.7,18c.1,0,.22,0,.29,0a.77.77,0,0,1,.3.32.32.32,0,0,1-.2.4.79.79,0,0,1-.3.08Z"/><path class="cls-1" d="M15.89,20.36l2-.24a1.41,1.41,0,0,1,.29,0,.36.36,0,0,1,.34.33.37.37,0,0,1-.23.42,1.36,1.36,0,0,1-.29.06l-4.13.49a.76.76,0,0,1-.3,0,.35.35,0,0,1-.31-.35.36.36,0,0,1,.25-.4,1.36,1.36,0,0,1,.29-.06Z"/><path class="cls-1" d="M14.88,23.5c-.28,0-.55.07-.83.09s-.48-.1-.51-.34.11-.42.4-.46c.56-.08,1.12-.15,1.69-.2a.39.39,0,0,1,.48.37.41.41,0,0,1-.4.44Z"/><rect class="cls-2" x="22.35" y="3.2" width="4" height="4"/><rect class="cls-2" x="22.35" y="9.37" width="4" height="4"/><polyline class="cls-2" points="23.49 4.47 24.51 5.75 28.38 2.31"/></svg>