<svg id="Camada_1" data-name="Camada 1" xmlns="http://www.w3.org/2000/svg" viewBox="0 0 30 30"><defs><style>.cls-1{fill:#7fd1f5;}.cls-2{fill:none;stroke:#7fd1f5;stroke-miterlimit:10;stroke-width:0.75px;}</style></defs><title>article-preprint</title><path class="cls-1" d="M5.93,28.61a.59.59,0,0,1-.36-.54Q4.39,18,3.17,7.88a.69.69,0,0,1,.16-.55c1-1.34,2.11-2.67,3.16-4A.68.68,0,0,1,7,3L19.38,1.56c.5-.06.63,0,.69.56l2.31,19.5c.18,1.46.35,2.93.53,4.39a.6.6,0,0,1-.22.61Zm.44-.9L22,25.85,19.26,2.42,7.36,3.83l0,.29C7.5,5.07,7.62,6,7.73,7c.06.49-.05.63-.54.68L4.3,8,4,8ZM6.61,4.57l-2,2.56,2.29-.27Z"/><path class="cls-1" d="M8.21,20.13l.41,3.48,3.66-.43,0-.28c-.08-.65-.16-1.3-.23-2a.4.4,0,1,1,.79-.09c.11.88.22,1.75.32,2.62a.41.41,0,0,1-.4.5l-4.38.52a.42.42,0,0,1-.5-.36.77.77,0,0,1,0-.15l-.48-4c0-.44.08-.59.51-.65L12,18.85c.1,0,.22,0,.29,0s.29.2.3.33a.6.6,0,0,1-.19.4c-.07.07-.22.07-.33.08l-3.58.43Z"/><path class="cls-1" d="M12.3,10.89,7,11.52c-.41.05-.62-.06-.66-.33s.15-.44.57-.49L17.55,9.44a2.08,2.08,0,0,1,.35,0,.35.35,0,0,1,.32.35.34.34,0,0,1-.24.4,1.16,1.16,0,0,1-.31.07Z"/><path class="cls-1" d="M13.09,17.36,7.74,18c-.41.05-.62-.06-.65-.34s.15-.43.55-.48l10.71-1.27a1.51,1.51,0,0,1,.3,0,.37.37,0,0,1,.34.36.35.35,0,0,1-.25.4,1.16,1.16,0,0,1-.31.07Z"/><path class="cls-1" d="M13.14,6.13l4-.47a.81.81,0,0,1,.31,0,.35.35,0,0,1,.31.36.37.37,0,0,1-.25.39,1.36,1.36,0,0,1-.29.06l-8,1a.81.81,0,0,1-.27,0,.36.36,0,0,1-.36-.34.38.38,0,0,1,.26-.42.94.94,0,0,1,.29-.06Z"/><path class="cls-1" d="M15.91,12.65l-2.08.25a.54.54,0,0,1-.31,0c-.12-.08-.27-.2-.29-.32a.76.76,0,0,1,.19-.41c0-.05.15-.06.23-.07l4.29-.51a.45.45,0,0,1,.26,0,.72.72,0,0,1,.27.34.59.59,0,0,1-.2.38c-.06.07-.2.07-.3.08Z"/><path class="cls-1" d="M9.17,12.62l2.06-.24c.1,0,.24,0,.31,0s.28.22.29.34-.12.28-.22.39-.2.06-.3.08l-4.09.48h-.1c-.32,0-.52-.11-.55-.36s.14-.41.45-.45Z"/><path class="cls-1" d="M9.42,14.78l2.08-.24a.48.48,0,0,1,.34,0,.58.58,0,0,1,.25.35.58.58,0,0,1-.2.36.53.53,0,0,1-.3.08l-4.16.49a.46.46,0,0,1-.31,0c-.12-.08-.26-.21-.27-.33A.58.58,0,0,1,7,15.11a.56.56,0,0,1,.3-.08Z"/><path class="cls-1" d="M16.08,14l2.06-.24a.54.54,0,0,1,.31,0c.12.08.26.21.27.33a.54.54,0,0,1-.19.38c-.06.07-.21.08-.32.09l-4.11.49a.5.5,0,0,1-.32,0c-.12-.08-.28-.21-.29-.34s.1-.28.21-.39.19-.07.3-.08Z"/><path class="cls-1" d="M16.68,19.13l-2.08.24c-.1,0-.24,0-.31,0S14,19.15,14,19s.12-.27.22-.39.16-.06.25-.07l4.19-.5a.52.52,0,0,1,.28,0,.83.83,0,0,1,.3.32.33.33,0,0,1-.19.41.89.89,0,0,1-.31.08Z"/><path class="cls-1" d="M16.84,20.47l2-.24a1.43,1.43,0,0,1,.29,0,.36.36,0,0,1,.34.34.34.34,0,0,1-.23.41A1,1,0,0,1,19,21l-4.14.49a.94.94,0,0,1-.29,0,.39.39,0,0,1-.07-.75,1.74,1.74,0,0,1,.29-.07Z"/><path class="cls-1" d="M15.83,23.6l-.83.1a.41.41,0,1,1-.11-.81l1.69-.2c.29,0,.47.13.48.37s-.12.4-.4.44Z"/><rect class="cls-2" x="23.3" y="3.31" width="4" height="4"/><rect class="cls-2" x="23.3" y="9.48" width="4" height="4"/></svg>