<svg id="Camada_1" data-name="Camada 1" xmlns="http://www.w3.org/2000/svg" viewBox="0 0 30 30"><defs><style>.cls-1{fill:#7fd1f5;}</style></defs><title>papers</title><path class="cls-1" d="M.85,8.56a1.25,1.25,0,0,1,.85-.39L6,7.59l.31,0c0-.42,0-.82,0-1.22,0-.66.26-.9.92-.89l4.64.12c.07-.37.14-.74.22-1.11s.12-.66.2-1a.71.71,0,0,1,.87-.61l.28,0c4.22.84,8.44,1.69,12.67,2.52A1.21,1.21,0,0,1,27,6q1.25,1.8,2.52,3.58a1,1,0,0,1,.17.81q-1.76,8.74-3.49,17.51c-.13.64-.43.84-1.07.72-1.15-.23-2.29-.52-3.45-.67a9.86,9.86,0,0,0-2.71-.06c-4.7.66-9.39,1.38-14.08,2.08-.63.1-.92-.11-1-.75-.45-3.06-.91-6.11-1.37-9.17a1.64,1.64,0,0,1,0-.22.41.41,0,0,1,.35-.46.4.4,0,0,1,.46.35c.09.49.16,1,.23,1.46.38,2.57.77,5.14,1.15,7.71,0,.07,0,.15,0,.26l9.62-1.44v0l-2.44-.07L6.5,27.42a.7.7,0,0,1-.71-.79c0-1.74.08-3.47.13-5.21.08-3.14.17-6.27.25-9.41,0-1.19.07-2.38.1-3.61L1.66,9c.06.43.12.84.18,1.25.37,2.45.73,4.9,1.1,7.35a2.42,2.42,0,0,1,0,.25.4.4,0,0,1-.35.41A.39.39,0,0,1,2.17,18a1.13,1.13,0,0,1-.06-.32C1.68,14.82,1.24,12,.81,9.08A.5.5,0,0,0,.78,9ZM25.62,6.2,13.1,3.71,13,4l-.55,2.77q-.78,3.85-1.54,7.71c-.07.34-.24.48-.5.44s-.38-.26-.32-.6c0-.07,0-.13,0-.2l1.47-7.38.07-.35L7.16,6.28l-.54,20.3,9.49.26v-.05l-.33-.06-7-1.39a.75.75,0,0,1-.68-1c.53-2.64,1-5.27,1.58-7.91.06-.32.26-.48.51-.43s.37.26.31.58c0,.08,0,.15,0,.22L9,24.18,9,24.49,25.3,27.75l3.45-17.31-.3-.06c-.76-.15-1.52-.32-2.28-.45s-1.24-.56-1-1.5C25.35,7.7,25.47,7,25.62,6.2Zm.77.42c-.15.75-.28,1.43-.43,2.11-.05.22,0,.3.23.34l2,.41a.92.92,0,0,0,.15,0Z"/><path class="cls-1" d="M19,17.13,13.37,16a1.83,1.83,0,0,1-.25-.06.4.4,0,0,1-.3-.47.41.41,0,0,1,.47-.34l.22,0,11.35,2.26a2.1,2.1,0,0,1,.24.06.38.38,0,0,1,.27.46.39.39,0,0,1-.44.34,1,1,0,0,1-.24,0Z"/><path class="cls-1" d="M19.76,13.4l5.64,1.12c.1,0,.23,0,.29.08s.26.27.25.4-.18.28-.31.36-.24,0-.35,0L13.9,13.08a1.12,1.12,0,0,1-.31-.1.35.35,0,0,1-.16-.48,1,1,0,0,1,.4-.27c.07,0,.18,0,.27,0Z"/><path class="cls-1" d="M18.46,20.05l-5.72-1.14c-.09,0-.21,0-.26-.07s-.24-.3-.22-.43.19-.26.33-.34.24,0,.35,0c3.78.74,7.55,1.5,11.32,2.25a.58.58,0,0,1,.14,0c.29.07.44.27.39.51s-.26.36-.56.3Z"/><path class="cls-1" d="M20.36,10.48,26,11.6c.42.09.6.26.55.53s-.29.38-.7.3L14.52,10.17h0c-.38-.08-.54-.25-.49-.52s.27-.37.64-.3l1.15.23Z"/><path class="cls-1" d="M18,22.15l5.66,1.12.27.07a.41.41,0,0,1-.11.79,1.63,1.63,0,0,1-.31,0L12.18,21.84a1.7,1.7,0,0,1-.32-.1.34.34,0,0,1-.17-.47.84.84,0,0,1,.39-.29c.07,0,.19,0,.29,0Z"/></svg>