<svg id="Camada_1" data-name="Camada 1" xmlns="http://www.w3.org/2000/svg" viewBox="0 0 30 30"><defs><style>.cls-1{fill:#7fd1f5;}.cls-2{fill:none;stroke:#7fd1f5;stroke-miterlimit:10;stroke-width:0.75px;}</style></defs><title>research</title><path class="cls-1" d="M5.19,30l-.36-.11A2.6,2.6,0,0,1,3.32,26.1c2.11-3.61,4.2-7.23,6.33-10.82a3.23,3.23,0,0,0,.55-2.06c0-.3,0-.61,0-.91a.36.36,0,0,0-.15-.24,1.68,1.68,0,0,1-.9-1.93,1.66,1.66,0,0,1,1.69-1.25h4.25a1.67,1.67,0,0,1,.76,3.2l-.09.05c0,.69,0,1.38,0,2.08a.68.68,0,0,0,.13.32L22.55,26a2.61,2.61,0,0,1-.41,3.32,3.16,3.16,0,0,1-1.39.7Zm6.12-17.77c0,.72,0,1.4,0,2.08a1.24,1.24,0,0,1-.14.55Q7.74,20.76,4.3,26.64a1.41,1.41,0,0,0-.19,1,1.5,1.5,0,0,0,1.54,1.21h14.8a1.49,1.49,0,0,0,1.37-1.15,1.58,1.58,0,0,0-.24-1.21c-2.22-3.8-4.42-7.6-6.64-11.39A1.92,1.92,0,0,1,14.63,14c0-.59,0-1.18,0-1.78ZM13,10H10.85c-.4,0-.65.22-.65.55s.25.56.65.56h4.24c.4,0,.66-.22.66-.55S15.5,10,15.1,10Z"/><path class="cls-1" d="M13,4.05a2.5,2.5,0,1,1,2.48,2.5A2.51,2.51,0,0,1,13,4.05Zm2.5,1.39a1.39,1.39,0,1,0-1.39-1.39A1.39,1.39,0,0,0,15.47,5.44Z"/><path class="cls-1" d="M8,6A1.81,1.81,0,1,1,9.76,7.78,1.82,1.82,0,0,1,8,6Zm2.5,0a.7.7,0,1,0-.68.69A.7.7,0,0,0,10.47,6Z"/><path class="cls-1" d="M6.89,26.67H8.83c.54,0,1.07,0,1.61,0a.56.56,0,0,1,.59.54.55.55,0,0,1-.57.56c-1.27,0-2.55,0-3.83,0a1,1,0,0,1-.82-1.5c.29-.53.61-1.05.92-1.58.46-.79.91-1.59,1.39-2.37a1.1,1.1,0,0,1,.41-.39,4.3,4.3,0,0,1,2.88-.4c1,.19,2,.47,3,.65a8,8,0,0,0,1.7.09A2.74,2.74,0,0,0,17,22a.57.57,0,0,1,.79.22c.78,1.34,1.57,2.68,2.34,4a1,1,0,0,1-.9,1.53H15.53a.56.56,0,1,1,0-1.11c1.06,0,2.13,0,3.19,0h.33a2.73,2.73,0,0,0-.13-.25c-.58-1-1.16-2-1.73-3a.28.28,0,0,0-.39-.15,5.84,5.84,0,0,1-3-.07c-1-.21-1.93-.43-2.9-.61a2.89,2.89,0,0,0-1.61.2A.66.66,0,0,0,9,23c-.69,1.17-1.37,2.35-2,3.52A.7.7,0,0,0,6.89,26.67Z"/><path class="cls-1" d="M13,27.78a.56.56,0,0,1,0-1.11.56.56,0,1,1,0,1.11Z"/><rect class="cls-2" x="20.62" y="7.33" width="4" height="4"/></svg>