<svg id="Camada_1" data-name="Camada 1" xmlns="http://www.w3.org/2000/svg" viewBox="0 0 30 30"><defs><style>.cls-1{fill:#7fd1f5;}</style></defs><title>teaching</title><path class="cls-1" d="M8.64,3.15h.88l.15.05a3.83,3.83,0,0,1,2.18,1.1.63.63,0,0,0,.5.2H26.43a1.09,1.09,0,0,1,.82.37,4.82,4.82,0,0,1,.41.69V18.62A1.43,1.43,0,0,1,26,19.71H22.92c-.32,0-.7-.08-.94.06s-.36.51-.53.78L20.7,21.8a1.77,1.77,0,0,1,.71,1.94,1.75,1.75,0,0,1-2.49,1.15c-1.28-.58-3.18-1.17-4.46-1.76l-.69-.31V29a.9.9,0,0,1-1,1h-8a.9.9,0,0,1-1-1c0-1,0-1.95,0-2.93v-.3l-.12,0a1.77,1.77,0,0,1-2.52-1.74c0-2.5,0-5,0-7.49a3.86,3.86,0,0,1,1.58-3.18A.43.43,0,0,0,2.89,13V5.92A1.33,1.33,0,0,1,4.28,4.5H5.86a.5.5,0,0,0,.43-.17,3.87,3.87,0,0,1,1.8-1.05ZM3.77,12.73a9,9,0,0,1,1.29-.17c2.4,0,4.81,0,7.21,0A3.89,3.89,0,0,1,16,15.69a25,25,0,0,1,.31,2.86c0,.23.09.27.3.27q2.28,0,4.56,0a.38.38,0,0,0,.39-.22c.26-.45.53-.9.81-1.34a.43.43,0,0,1,.6-.17.45.45,0,0,1,.15.63c-.08.15-.17.29-.26.43l-.4.67h3.66c.48,0,.62-.15.62-.63V6c0-.51-.13-.63-.63-.63H12.66A4.12,4.12,0,0,1,13,8.1a4,4,0,0,1-1.44,2.27,3.86,3.86,0,0,1-4.47.26C5.12,9.35,4.71,7.56,5.48,5.4c-.37,0-.74,0-1.1,0s-.61.13-.61.63v6.7Zm9.1,13.68a1.83,1.83,0,0,0,0-.21c0-1.22,0-2.43,0-3.65a1,1,0,0,0-.16-.56,2.19,2.19,0,0,1-.26-.7c-.08-.51-.13-1-.18-1.56l-.24-2.19a.44.44,0,0,1,.28-.5c.31-.11.57.09.61.48.12,1.15.25,2.31.37,3.46a1.08,1.08,0,0,0,.69,1c.92.4,2.45.83,3.36,1.25l1.95.9a.87.87,0,0,0,1-.12.84.84,0,0,0,.3-.87.89.89,0,0,0-.57-.66l-4-1.83c-.19-.09-.35-.19-.38-.42-.12-1.22-.28-2.43-.34-3.65a3.16,3.16,0,0,0-3.15-3.1h-7A3.12,3.12,0,0,0,2,16.63V24.1a.89.89,0,0,0,.52.89.87.87,0,0,0,1.24-.85c0-2.15,0-4.3,0-6.45a1.94,1.94,0,0,1,0-.34A.41.41,0,0,1,4.27,17a.4.4,0,0,1,.38.39c0,.1,0,.2,0,.29v8.69ZM12.18,7.18a3.1,3.1,0,1,0-3.09,3.14A3.1,3.1,0,0,0,12.18,7.18ZM4.67,29.09h8.2V27.34H4.67Zm11.82-9.36,0,.1,3.43,1.58,1-1.68Z"/><path class="cls-1" d="M18.61,7.18h3.63a.53.53,0,0,1,.36.09.58.58,0,0,1,.17.42c0,.14-.2.26-.33.36s-.18,0-.27,0H14.83a.47.47,0,0,1-.44-.46.43.43,0,0,1,.46-.43h3.76Z"/><path class="cls-1" d="M21.05,9.42h3.58a.44.44,0,0,1,0,.87H17.7c-.44,0-.66-.15-.65-.45s.21-.44.64-.44Z"/><path class="cls-1" d="M18.81,12.55H16.28c-.36,0-.55-.16-.55-.44s.19-.46.54-.46h5.1c.34,0,.54.18.54.46s-.2.43-.54.44Z"/><path class="cls-1" d="M15.48,10.31h-.2a.45.45,0,0,1,0-.89h.46a.45.45,0,0,1,.43.44.44.44,0,0,1-.42.45Z"/><path class="cls-1" d="M24.34,7.19a1.76,1.76,0,0,1,.23,0,.44.44,0,0,1,0,.88,3.2,3.2,0,0,1-.44,0,.47.47,0,0,1-.47-.46.44.44,0,0,1,.48-.43,1.08,1.08,0,0,1,.18,0Z"/></svg>