<svg xmlns="http://www.w3.org/2000/svg" viewBox="0 0 20 16.76"><defs><style>.cls-1{fill:#7fd1f5;}</style></defs><title>de</title><g id="Camada_2" data-name="Camada 2"><path class="cls-1" d="M20,12.52l-.09.38a2.36,2.36,0,0,1-2.2,1.69h-.87v2.08l-.21-.11-3.28-1.87A.82.82,0,0,0,13,14.6H8.87a2.32,2.32,0,0,1-2.32-1.88,2.47,2.47,0,0,1,0-.54c0-.23,0-.46,0-.72L3.17,13.34V11.26H2.48A2.46,2.46,0,0,1,1.38,11,2.33,2.33,0,0,1,0,9.35s0-.1,0-.15V2.13S0,2.05,0,2A2.33,2.33,0,0,1,2.33.09H12.6a2.22,2.22,0,0,1,1.49.55,2.29,2.29,0,0,1,.83,1.78c0,.33,0,.66,0,1h2.74a2.3,2.3,0,0,1,1.88,1A2.87,2.87,0,0,1,20,5.45ZM4.33,11.32l.2-.1c.59-.34,1.17-.68,1.76-1a1,1,0,0,1,.46-.13h5.7a1.19,1.19,0,0,0,1.3-1.3V2.52a1.17,1.17,0,0,0-1.26-1.26H2.43A1.17,1.17,0,0,0,1.17,2.53V8.8a1.19,1.19,0,0,0,1.29,1.29H4.33ZM14.92,4.59v.23c0,1.35,0,2.7,0,4a3.19,3.19,0,0,1-.13.81,2.33,2.33,0,0,1-2.31,1.59H7.67v.86A1.19,1.19,0,0,0,9,13.42h4.31a.87.87,0,0,1,.39.1c.6.33,1.18.68,1.78,1l.22.12V13.44l.06,0h1.85a1.18,1.18,0,0,0,1.25-1.25V5.78A1.15,1.15,0,0,0,17.74,4.6C16.81,4.58,15.88,4.59,14.92,4.59Z"/></g><g id="Camada_1" data-name="Camada 1"><path class="cls-1" d="M6.9,4.68V7.31c0,.64-.74,1.16-1.68,1.16H4c-.25,0-.47-.15-.47-.32V3.84c0-.18.22-.32.47-.32H5.22C6.16,3.52,6.9,4,6.9,4.68ZM6,4.68c0-.29-.34-.52-.75-.52H4.46V7.82h.76c.41,0,.75-.23.75-.51Z"/><path class="cls-1" d="M9.05,4.16V5.67h1.28c.13,0,.23.07.23.16v.32c0,.09-.1.16-.23.16H9.05V7.83h1.28c.13,0,.23.07.23.16v.32c0,.09-.1.16-.23.16H8.58c-.26,0-.46-.15-.46-.32V3.84c0-.18.2-.32.46-.32h1.75c.13,0,.23.07.23.16V4c0,.09-.1.16-.23.16Z"/></g></svg>