<svg xmlns="http://www.w3.org/2000/svg" viewBox="0 0 20 16.76"><defs><style>.cls-1{fill:#7fd1f5;}</style></defs><title>en</title><g id="Camada_1" data-name="Camada 1"><path class="cls-1" d="M20,12.61l-.09.38a2.36,2.36,0,0,1-2.2,1.69h-.87v2.08l-.21-.11-3.28-1.87a.82.82,0,0,0-.38-.09H8.87A2.34,2.34,0,0,1,6.55,12.8a2.47,2.47,0,0,1,0-.54c0-.23,0-.46,0-.73l-3.32,1.9V11.35H2.48a2.46,2.46,0,0,1-1.1-.22A2.33,2.33,0,0,1,0,9.44s0-.1,0-.15V2.22l0-.13A2.32,2.32,0,0,1,2.33.18H12.6a2.22,2.22,0,0,1,1.49.55,2.29,2.29,0,0,1,.83,1.78c0,.33,0,.66,0,1h2.74a2.3,2.3,0,0,1,1.88,1A2.87,2.87,0,0,1,20,5.54ZM4.33,11.41l.2-.1,1.76-1a1.09,1.09,0,0,1,.46-.12h5.7a1.19,1.19,0,0,0,1.3-1.3V2.61a1.17,1.17,0,0,0-1.26-1.26H2.43A1.17,1.17,0,0,0,1.17,2.62V8.89a1.19,1.19,0,0,0,1.29,1.29H4.33ZM14.92,4.68v.23c0,1.35,0,2.7,0,4a3.19,3.19,0,0,1-.13.81,2.35,2.35,0,0,1-2.31,1.59H7.67v.86A1.19,1.19,0,0,0,9,13.51h4.31a.87.87,0,0,1,.39.1c.6.33,1.18.68,1.78,1l.22.12V13.53l.06,0h1.85a1.19,1.19,0,0,0,1.25-1.25V5.87a1.15,1.15,0,0,0-1.09-1.18C16.81,4.67,15.88,4.68,14.92,4.68Z"/><path class="cls-1" d="M4.72,3.85V5.36H6c.13,0,.23.07.23.16v.31c0,.09-.1.17-.23.17H4.72V7.51H6c.13,0,.23.07.23.16V8c0,.09-.1.16-.23.16H4.25c-.26,0-.46-.15-.46-.32V3.53c0-.18.2-.32.46-.32H6c.13,0,.23.07.23.16v.32c0,.09-.1.16-.23.16Z"/><path class="cls-1" d="M10.82,4.36V8c0,.08-.1.16-.23.16h-.47c-.13,0-.23-.08-.23-.16V4.36c0-.28-.34-.51-.75-.51s-.76.23-.76.51V8c0,.08-.1.16-.23.16H7.68c-.14,0-.24-.08-.24-.16V4.36c0-.63.76-1.15,1.7-1.15S10.82,3.73,10.82,4.36Z"/></g></svg>