<svg xmlns="http://www.w3.org/2000/svg" viewBox="0 0 20 16.76"><defs><style>.cls-1{fill:#7fd1f5;}</style></defs><title>fr</title><g id="Camada_2" data-name="Camada 2"><path class="cls-1" d="M20,12.52l-.09.38a2.36,2.36,0,0,1-2.2,1.69h-.87v2.08l-.21-.11-3.28-1.87A.82.82,0,0,0,13,14.6H8.87a2.32,2.32,0,0,1-2.32-1.88,2.47,2.47,0,0,1,0-.54c0-.23,0-.46,0-.72L3.17,13.34V11.26H2.48A2.46,2.46,0,0,1,1.38,11,2.33,2.33,0,0,1,0,9.35s0-.1,0-.15V2.13S0,2.05,0,2A2.33,2.33,0,0,1,2.33.09H12.6a2.22,2.22,0,0,1,1.49.55,2.29,2.29,0,0,1,.83,1.78c0,.33,0,.66,0,1h2.74a2.3,2.3,0,0,1,1.88,1A2.87,2.87,0,0,1,20,5.45ZM4.33,11.32l.2-.1c.59-.34,1.17-.68,1.76-1a1,1,0,0,1,.46-.13h5.7a1.19,1.19,0,0,0,1.3-1.3V2.52a1.17,1.17,0,0,0-1.26-1.26H2.43A1.17,1.17,0,0,0,1.17,2.53V8.8a1.19,1.19,0,0,0,1.29,1.29H4.33ZM14.92,4.59v.23c0,1.35,0,2.7,0,4a3.19,3.19,0,0,1-.13.81,2.33,2.33,0,0,1-2.31,1.59H7.67v.86A1.19,1.19,0,0,0,9,13.42h4.31a.87.87,0,0,1,.39.1c.6.33,1.18.68,1.78,1l.22.12V13.44l.06,0h1.85a1.18,1.18,0,0,0,1.25-1.25V5.78A1.15,1.15,0,0,0,17.74,4.6C16.81,4.58,15.88,4.59,14.92,4.59Z"/></g><g id="Camada_1" data-name="Camada 1"><path class="cls-1" d="M4.46,4.16V5.67H5.73c.13,0,.24.07.24.16v.32c0,.09-.11.16-.24.16H4.46v2c0,.09-.1.16-.23.16H3.76c-.13,0-.24-.07-.24-.16V3.84c0-.18.21-.32.47-.32H5.73c.13,0,.24.07.24.16V4c0,.09-.11.16-.24.16Z"/><path class="cls-1" d="M10.47,5.15A1,1,0,0,1,10,6a1,1,0,0,1,.51.83V8.31c0,.08-.1.16-.23.16H9.77c-.13,0-.23-.08-.23-.16V6.82c0-.28-.34-.51-.75-.51H8v2c0,.08-.11.16-.23.16H7.34c-.13,0-.23-.08-.23-.16V3.84c0-.18.2-.32.47-.32H8.79c.94,0,1.68.52,1.68,1.15Zm-.93-.48c0-.28-.34-.51-.75-.51H8V5.67h.75c.41,0,.75-.23.75-.52Z"/></g></svg>