<svg id="Camada_1" data-name="Camada 1" xmlns="http://www.w3.org/2000/svg" viewBox="0 0 30 30"><defs><style>.cls-1{fill:#7fd1f5;}</style></defs><title>book</title><path class="cls-1" d="M10.62,28.17l-1.14.1a2.82,2.82,0,0,1-3.2-2.67Q5.44,16.29,4.59,7A3.25,3.25,0,0,1,7,3.44a2.2,2.2,0,0,1,.37-.06L22.41,2c.45,0,.53,0,.58.49L24.76,22c.07.78-.24,1.17-1,1.23-.2,0-.27.09-.3.28a2.76,2.76,0,0,0,.07,1.31.35.35,0,0,0,.43.28.93.93,0,0,1,1.13.61,2.86,2.86,0,0,1,.09.83c0,.1-.15.21-.25.29a.47.47,0,0,1-.24,0L16,27.68c-.39,0-.55,0-.57-.28s.14-.33.5-.37l8.23-.75.31,0c.05-.41-.06-.52-.46-.49l-8.06.74a1.51,1.51,0,0,1-.3,0,.32.32,0,0,1,0-.63l.27,0,6.71-.61.35,0-.18-.64-8.18.74,0,.3c.1,1.15.21,2.3.31,3.45,0,.47-.14.61-.58.45s-.87-.32-1.32-.46a.61.61,0,0,0-.4,0c-.43.23-.84.49-1.26.73s-.55.08-.59-.31S10.67,28.64,10.62,28.17ZM22.33,2.69,7.54,4l0,.37q.75,8.34,1.51,16.69c0,.11.06.24,0,.32s-.17.28-.28.3-.25-.11-.33-.21,0-.22-.05-.34Q7.69,12.85,6.93,4.52l0-.39a3.39,3.39,0,0,0-.47.24A2.69,2.69,0,0,0,5.24,7Q6,15.28,6.75,23.54l0,.28.1-.06a3.13,3.13,0,0,1,2.32-1.15L23.67,21.3l.35,0ZM10.53,27.55c.05-.55,0-.55-.43-.51s-.7.07-1,.07a1.58,1.58,0,0,1,0-3.16l14.55-1.33c.5,0,.61-.21.43-.7l-.29,0L9.16,23.28l-.33,0a2.23,2.23,0,0,0-1.9,2.2,2.14,2.14,0,0,0,1.89,2.1A14,14,0,0,0,10.53,27.55Zm12.26-4.2-.3,0L9.26,24.58l-.27,0a1,1,0,0,0-.8.93.85.85,0,0,0,.72.88,11.39,11.39,0,0,0,1.53-.12l-.06-.62c-.31,0-.59.06-.88.07a.29.29,0,0,1-.35-.29.3.3,0,0,1,.29-.35l.24,0L22.4,23.93l.32,0ZM14.2,28.77l-.31-3.4-2.82.26.31,3.4,1.09-.63a.53.53,0,0,1,.54,0Z"/></svg>