<svg id="Camada_1" data-name="Camada 1" xmlns="http://www.w3.org/2000/svg" viewBox="0 0 30 30"><defs><style>.cls-1{fill:#7fd1f5;}</style></defs><title>chapter</title><path class="cls-1" d="M5.51,28.17a5.34,5.34,0,0,1-1-.33,2,2,0,0,1-1-1.64C2.91,20.81,2.4,15.42,1.88,10c0-.33.12-.55.38-.57s.42.17.46.52L4.25,25.91l0,.27a1.27,1.27,0,0,0,1.37,1.13l.23,0,9.49-.91.33,0c0-.32,0-.62-.09-.91,0-.05-.12-.11-.18-.13A9,9,0,0,0,12.16,25a27.54,27.54,0,0,0-6.34,1.4c-.46.16-.68,0-.72-.48L3.36,7.84c0-.42,0-.53.42-.67a27.21,27.21,0,0,1,6.55-1.44,9.52,9.52,0,0,1,3.89.43.61.61,0,0,1,.46.61q.69,7.29,1.4,14.58l.12,1.25.26-.18a46.63,46.63,0,0,1,6.35-3.75.26.26,0,0,0,.17-.3q-.77-7.92-1.52-15.83c0-.06,0-.12,0-.21l-.24.12a44.38,44.38,0,0,0-5.27,3.36l-.29.2a.41.41,0,0,1-.48-.67c.13-.11.27-.21.41-.31a42.93,42.93,0,0,1,5.92-3.67.91.91,0,0,1,.17-.09.41.41,0,0,1,.54.26,1.2,1.2,0,0,1,.06.33q.8,8.35,1.6,16.69c.05.49,0,.56-.43.77a45.77,45.77,0,0,0-7.09,4.23c-.19.14-.37.33-.64.2s-.26-.37-.28-.61q-.76-8-1.52-15.9a.39.39,0,0,0-.33-.4A9.76,9.76,0,0,0,10,6.61a29.36,29.36,0,0,0-5.47,1.2c-.23.07-.3.15-.28.4q.82,8.46,1.63,16.93l0,.33.62-.19a27.21,27.21,0,0,1,5.79-1.13,9.85,9.85,0,0,1,3.46.37.63.63,0,0,0,.41,0,13.46,13.46,0,0,1,5.32-1.21,27.38,27.38,0,0,1,4.51.23l0-.27-1.62-17c0-.21-.08-.32-.3-.31a1,1,0,0,1-.34,0,.4.4,0,0,1-.32-.42.38.38,0,0,1,.38-.38,6.24,6.24,0,0,1,1,.11c.11,0,.2.18.28.3s0,.14,0,.21q.87,9,1.73,18.07c0,.05,0,.1,0,.14a.44.44,0,0,1-.55.49c-.62-.08-1.25-.18-1.88-.24a21.75,21.75,0,0,0-4.77.09,11.53,11.53,0,0,0-3.09.95.24.24,0,0,0-.14.17c0,.27.05.55.08.86l.28,0,9.6-.92a1.3,1.3,0,0,0,1.29-1.57L26.19,7.85a1.5,1.5,0,0,0,0-.22.41.41,0,0,1,.28-.47.4.4,0,0,1,.48.15l.06.07L28.6,24.07a7.29,7.29,0,0,1-.34,1.06,2,2,0,0,1-1.35,1Z"/><path class="cls-1" d="M10.45,17.51l2.17,0a.83.83,0,0,1,.22,0,.42.42,0,0,1,.36.48.43.43,0,0,1-.47.35c-.5,0-1-.05-1.49,0a13,13,0,0,0-3.5.66l-.24.08A.42.42,0,0,1,7,18.84a.41.41,0,0,1,.25-.54A11.16,11.16,0,0,1,8.35,18C9,17.8,9.64,17.68,10.45,17.51Z"/><path class="cls-1" d="M11.11,20c.48,0,1.21,0,1.92.06a.4.4,0,0,1,.41.46.42.42,0,0,1-.49.37,12.14,12.14,0,0,0-5.14.68.43.43,0,0,1-.53-.12.41.41,0,0,1,.23-.66c.64-.19,1.28-.38,1.93-.53C9.91,20.16,10.39,20.12,11.11,20Z"/><path class="cls-1" d="M10,10,12,10a.43.43,0,0,1,.46.47.44.44,0,0,1-.53.36,12.27,12.27,0,0,0-5.06.67.8.8,0,0,1-.34,0,.37.37,0,0,1-.32-.37.41.41,0,0,1,.32-.44c.4-.13.8-.27,1.2-.36C8.46,10.22,9.17,10.1,10,10Z"/><path class="cls-1" d="M12.54,15.85l-1.4,0a12.93,12.93,0,0,0-3.69.68l-.14,0c-.29.08-.5,0-.58-.25a.41.41,0,0,1,.32-.55c.68-.19,1.36-.39,2-.54a10.84,10.84,0,0,1,3.36-.2l.17,0a.4.4,0,0,1,.34.44A.39.39,0,0,1,12.54,15.85Z"/><path class="cls-1" d="M10.17,12.47c.64,0,1.36,0,2.08,0a.42.42,0,0,1,.46.36c0,.31-.18.5-.55.48s-.74,0-1.11,0a12.84,12.84,0,0,0-3.88.7L7,14.06a.42.42,0,0,1-.54-.26.41.41,0,0,1,.29-.54A11.16,11.16,0,0,1,8,12.89C8.71,12.73,9.4,12.62,10.17,12.47Z"/><path class="cls-1" d="M21,16.12a.41.41,0,0,1,.47.26.39.39,0,0,1-.13.47l-.14.09L17.9,18.81l-.15.09a.43.43,0,0,1-.6-.11.41.41,0,0,1,.18-.61c1.14-.66,2.29-1.31,3.44-2A1.43,1.43,0,0,1,21,16.12Z"/><path class="cls-1" d="M16.77,11.48c-.11-.08-.29-.14-.34-.25a.81.81,0,0,1,0-.46s.09-.09.14-.13l3.51-2a.65.65,0,0,1,.21-.07.41.41,0,0,1,.28.76c-.21.12-.43.2-.64.32-.93.53-1.85,1.08-2.78,1.62Z"/><path class="cls-1" d="M21.32,14c-.09.11-.16.28-.29.35-1.16.68-2.33,1.33-3.5,2-.27.15-.5.11-.63-.1a.42.42,0,0,1,.19-.61c1.16-.66,2.32-1.32,3.49-2,.27-.15.48-.11.61.08A1.23,1.23,0,0,1,21.32,14Z"/><path class="cls-1" d="M20.56,6.54a1,1,0,0,1-.26.31l-3.48,2a.45.45,0,0,1-.64-.09.42.42,0,0,1,.17-.61c1.18-.67,2.35-1.34,3.54-2A.44.44,0,0,1,20.56,6.54Z"/><path class="cls-1" d="M21.05,11.56c-.06.07-.12.23-.25.31l-3.52,2a.42.42,0,0,1-.61-.11.4.4,0,0,1,.17-.6c1.16-.67,2.33-1.34,3.51-2A.44.44,0,0,1,21.05,11.56Z"/></svg>