<svg id="Camada_1" data-name="Camada 1" xmlns="http://www.w3.org/2000/svg" viewBox="0 0 30 30"><defs><style>.cls-1{fill:#7fd1f5;}</style></defs><title>citation</title><path class="cls-1" d="M29.53,15.66c-.07.37-.12.75-.21,1.11a7.57,7.57,0,0,1-6.8,5.82c-.29,0-.57,0-.86,0H9.91a1.35,1.35,0,0,0-.52.11L2.15,26.1l-.26.11c0-.11,0-.2,0-.28V12.78a7.56,7.56,0,0,1,6-7.5,8.05,8.05,0,0,1,1.77-.17c4,0,8.06,0,12.1,0a7.64,7.64,0,0,1,7.41,5.3c.14.47.21,1,.31,1.45,0,.09,0,.17.05.26Zm-26,7.9.31-.12c1.71-.8,3.42-1.6,5.13-2.38a1.44,1.44,0,0,1,.57-.13H21.7a8.68,8.68,0,0,0,1.13-.07,5.77,5.77,0,0,0,4.89-4.8,21.84,21.84,0,0,0,.08-3.88,5.82,5.82,0,0,0-5.67-5.36c-4.27,0-8.53,0-12.8,0A5.5,5.5,0,0,0,6.1,7.86a5.78,5.78,0,0,0-2.54,4.91c0,3.51,0,7,0,10.53Z"/><path class="cls-1" d="M7.67,14.91c.06-.37.09-.74.16-1.11A6.42,6.42,0,0,1,9,11.29a9.52,9.52,0,0,1,3.09-2.62l.76-.41,1.13,2.08c-.41.23-.82.44-1.21.69a3.57,3.57,0,0,0-1.29,1.27c-.12.23-.2.48-.3.72.26.08.47.14.68.22a3.08,3.08,0,0,1,2,3A2.86,2.86,0,0,1,9.1,18.35a3.69,3.69,0,0,1-1.36-2.29c0-.13,0-.27-.07-.4Z"/><path class="cls-1" d="M17.05,14.91c.06-.37.09-.74.17-1.11a6.26,6.26,0,0,1,1.12-2.51,9.52,9.52,0,0,1,3.09-2.62l.77-.41,1.12,2.08c-.41.23-.82.44-1.2.69a3.6,3.6,0,0,0-1.3,1.27,6.37,6.37,0,0,0-.29.72c.25.08.47.14.68.22a3.07,3.07,0,0,1,2,3,2.86,2.86,0,0,1-4.69,2.09,3.69,3.69,0,0,1-1.36-2.29c0-.13,0-.27-.07-.4Z"/></svg>