<svg id="Camada_1" data-name="Camada 1" xmlns="http://www.w3.org/2000/svg" viewBox="0 0 30 30"><defs><style>.cls-1{fill:#7fd1f5;}</style></defs><title>event</title><path class="cls-1" d="M26.31,30H3.69a5.29,5.29,0,0,1-1-.43A3,3,0,0,1,1.44,27V7.55A2.5,2.5,0,0,1,4.05,4.94H6.2c0-.63,0-1.22,0-1.81a1.06,1.06,0,0,1,.65-1,2.23,2.23,0,0,1,.79-.19c.67,0,1.34,0,2,0A1.18,1.18,0,0,1,10.93,3.2c0,.57,0,1.13,0,1.72h8.14c0-.61,0-1.21,0-1.8a1.14,1.14,0,0,1,1.15-1.23c.76,0,1.52,0,2.28,0a1.26,1.26,0,0,1,1.3,1.38c0,.2,0,.4,0,.6V4.93H26a2.47,2.47,0,0,1,2.51,2.5q0,9.81,0,19.63a3.16,3.16,0,0,1-.48,1.69A2.7,2.7,0,0,1,26.31,30ZM2.8,12.74V27c0,.1,0,.2,0,.3a1.33,1.33,0,0,0,1.34,1.37h21.7A1.15,1.15,0,0,0,27,27.85a2.41,2.41,0,0,0,.16-.88q0-7,0-13.92v-.31Zm24.4-1.38V7.49A1.16,1.16,0,0,0,26,6.28H24.06l-.25,0v.54a1.38,1.38,0,0,1-1.45,1.47h-2A1.23,1.23,0,0,1,19.07,7c0-.24,0-.49,0-.74H10.93c0,.29,0,.55,0,.81a1.22,1.22,0,0,1-1.14,1.2c-.76,0-1.52,0-2.28,0A1.34,1.34,0,0,1,6.19,6.91V6.3c-.83,0-1.62,0-2.41,0a1.09,1.09,0,0,0-1,1.14c0,1.22,0,2.45,0,3.67,0,.08,0,.16,0,.24ZM20.38,3.25V6.94h2.06V3.25Zm-10.82,0H7.66V7h1.9Z"/><path class="cls-1" d="M10.62,25.4c.15-.82.25-1.68.47-2.5a1.34,1.34,0,0,0-.5-1.58c-.62-.49-1.15-1.08-1.72-1.62a.75.75,0,0,1-.27-.81.77.77,0,0,1,.68-.47c1-.14,2-.3,3-.43a.49.49,0,0,0,.42-.32c.44-.89.89-1.78,1.32-2.68a.75.75,0,0,1,.68-.51.74.74,0,0,1,.68.51c.45.92.91,1.83,1.36,2.75A.38.38,0,0,0,17,18c1,.14,2,.3,3,.45a.71.71,0,0,1,.67.49.75.75,0,0,1-.28.78l-2.16,2.07a.46.46,0,0,0-.16.49c.18,1,.36,1.93.52,2.89a1.3,1.3,0,0,1-.08.68c-.17.34-.56.39-1,.18-.88-.46-1.77-.91-2.64-1.39a.58.58,0,0,0-.61,0c-.89.48-1.79.95-2.69,1.41A.68.68,0,0,1,10.62,25.4Zm1.6-1.16c.7-.38,1.34-.71,2-1.06a.87.87,0,0,1,.93,0l1.74.94.23.1c-.1-.61-.15-1.2-.3-1.76a1.42,1.42,0,0,1,.54-1.66,11.74,11.74,0,0,0,1.16-1.27s-.08,0-.16,0l-2-.28a.72.72,0,0,1-.6-.42c-.31-.63-.62-1.26-.94-1.89a1.38,1.38,0,0,0-.13-.22c-.37.73-.72,1.42-1.06,2.12a.67.67,0,0,1-.51.4l-.85.12-1.48.21,0,.08a.89.89,0,0,1,.22.16l1.43,1.36a.78.78,0,0,1,.25.8,3,3,0,0,0-.06.32C12.45,22.91,12.34,23.54,12.22,24.24Z"/></svg>