<svg xmlns="http://www.w3.org/2000/svg" viewBox="0 0 30 30"><defs><style>.cls-1{fill:#7fd1f5;}</style></defs><title>internship</title><g id="Camada_1" data-name="Camada 1"><path class="cls-1" d="M29.24,18.59c-.24-.13-.5-.25-.76-.36h0c-.88-.38-3.61-1.58-4.49-1.95a.38.38,0,0,1-.27-.4q0-4.59,0-9.18a1.4,1.4,0,0,0-1.52-1.51H18.59V3.88A2.22,2.22,0,0,0,16.71,1.7a11.42,11.42,0,0,0-1.55-.05h0c-1.3,0-4.73,0-6,0a2.36,2.36,0,0,0-1,.27A2.09,2.09,0,0,0,6.86,3.85c0,.44,0,.88,0,1.34H3.15A1.36,1.36,0,0,0,1.86,6c-.06.11-.1.21-.15.32V19.09a3.28,3.28,0,0,0,.44,1.19,3.17,3.17,0,0,0,2.91,1.65c1.8,0,3.6,0,5.39,0,1.3,0,2.6,0,3.89,0,.23,0,.3.06.29.29,0,.82,0,1.65,0,2.47a1.52,1.52,0,0,0,.79,1.44l.28.16a.51.51,0,0,1,.19.83l-1.2,1.59c-.25.33-.22.51.13.76h.27L16,28.4c.08.38-.1.8.26,1.07h.33c.39-.26.22-.68.28-1l.93,1H18c.33-.31.34-.44.06-.81L17,27.14a2.29,2.29,0,0,1-.16-.38h.13a17.72,17.72,0,0,0,7.87.15A5.63,5.63,0,0,0,27.11,26a1.38,1.38,0,0,0,.6-1.2c0-1.23,0-2.47,0-3.7a.31.31,0,0,1,.22-.34c.43-.17.86-.36,1.28-.56a.84.84,0,0,0,.51-.8A.82.82,0,0,0,29.24,18.59ZM7.68,4A1.44,1.44,0,0,1,9.27,2.47H15c.43,0,.87,0,1.31,0a1.34,1.34,0,0,1,1.34,1,12.36,12.36,0,0,1,.14,1.73h-.71V4.06c0-.64-.3-.93-.94-.93H9.3c-.67,0-1,.29-1,.94v1.1H7.68ZM16.25,4V5.18H9.19V4ZM2.54,6.63A.56.56,0,0,1,3.15,6h19c.64,0,.8.15.8.78,0,1,0,1.92,0,2.88a3.53,3.53,0,0,1-2.44,3l-.17,0c0-.32,0-.61,0-.91a.86.86,0,0,0-.93-.93H18.18a.87.87,0,0,0-.94.9c0,.34,0,.67,0,1l0,.07h-9v-1a.87.87,0,0,0-.95-.94H6.11a.88.88,0,0,0-.93.89c0,.31,0,.61,0,1a3.21,3.21,0,0,1-1.29-.65A3.45,3.45,0,0,1,2.55,9.37C2.52,8.45,2.54,7.54,2.54,6.63ZM19.4,13.72v1.12H18.08V13.72Zm-1.31-.85V11.71H19.4v1.16ZM6,12.87V11.72H7.35v1.15Zm1.32.85v1.12H6V13.72ZM14.6,21.1h-.26c-3.07,0-6.14,0-9.2,0a2.42,2.42,0,0,1-2.52-1.84,5.47,5.47,0,0,1-.08-1V11.88l.19.21a4.31,4.31,0,0,0,2.21,1.43.28.28,0,0,1,.24.34q0,.45,0,.9a.89.89,0,0,0,.94.91H7.3a.87.87,0,0,0,.89-.88c0-.34,0-.68,0-1l0,0h9v1a.89.89,0,0,0,1,1h1.09a.86.86,0,0,0,.91-.9c0-.33,0-.66,0-1,0-.08.07-.21.13-.22a4.64,4.64,0,0,0,2.49-1.68v3.89c-.37-.16-.73-.3-1.08-.47a1.35,1.35,0,0,0-1.25,0c-2.41,1.07-4.83,2.12-7.25,3.17a.93.93,0,0,0,0,1.79l1.15.5A.22.22,0,0,1,14.6,21.1ZM16,25.18v.3c-.42-.16-.54-.33-.54-.7V21.25c.54.13.54.13.54.62Zm10.52.22A10.09,10.09,0,0,1,25,26a15.48,15.48,0,0,1-5.21.35c-.91-.08-1.8-.29-2.69-.44-.14,0-.23-.07-.23-.24,0-1.26,0-2.52,0-3.77a.65.65,0,0,1,0-.11l3.75,1.64a1.28,1.28,0,0,0,1.13,0l4.82-2.11.31-.13c0,.11,0,.19,0,.28,0,1.08,0,2.17,0,3.25A.61.61,0,0,1,26.52,25.4Zm2.17-5.88-7.31,3.2a.58.58,0,0,1-.41,0c-1.13-.48-2.26-1-3.38-1.47a.94.94,0,0,1-.17-.11L20,20a.45.45,0,0,1,.28,0,2.07,2.07,0,0,0,2-.14.91.91,0,0,0,0-1.6,2.11,2.11,0,0,0-2.28,0,.91.91,0,0,0-.44.77c0,.19-.07.26-.23.33-.93.42-1.85.85-2.79,1.26a.52.52,0,0,1-.37,0l-2.53-1.1-.28-.17.3-.15L20.93,16a.56.56,0,0,1,.49,0l2.78,1.22c.7.3,3.33,1.47,4,1.77h0l.25.11.48.23ZM20.4,19a1.11,1.11,0,0,1,1.52,0A1.08,1.08,0,0,1,20.4,19Z"/></g></svg>