<svg id="Camada_1" data-name="Camada 1" xmlns="http://www.w3.org/2000/svg" viewBox="0 0 30 30"><defs><style>.cls-1{fill:#7fd1f5;}</style></defs><title>managing</title><path class="cls-1" d="M21.77,10.92c-.31.45-.63.91-.93,1.38a.49.49,0,0,0,0,.36c.11.31.27.6.37.91a.35.35,0,0,0,.32.27l1.39.26c.19,0,.26.09.26.29q0,1.23,0,2.46c0,.17,0,.24-.22.27-.49.08-1,.18-1.48.29a.41.41,0,0,0-.24.21,9.77,9.77,0,0,0-.4,1,.42.42,0,0,0,0,.33c.31.48.63.95.94,1.41L19.7,22.39c-.45-.3-.92-.61-1.37-.93a.33.33,0,0,0-.39,0,4.81,4.81,0,0,1-.85.36.43.43,0,0,0-.34.4c-.07.46-.17.91-.25,1.37,0,.15-.08.22-.26.22H13.75c-.17,0-.23-.06-.26-.22-.09-.5-.18-1-.29-1.48a.39.39,0,0,0-.22-.25,7.61,7.61,0,0,0-.93-.39.52.52,0,0,0-.35,0c-.48.3-.94.62-1.37.92L8.25,20.28c.27-.41.57-.87.89-1.31a.36.36,0,0,0,0-.44,3.92,3.92,0,0,1-.32-.77.48.48,0,0,0-.48-.4c-.44-.07-.87-.17-1.31-.24a.23.23,0,0,1-.22-.27q0-1.25,0-2.49c0-.17.07-.23.23-.26.49-.08,1-.17,1.47-.28a.45.45,0,0,0,.25-.22,8.47,8.47,0,0,0,.39-.94.52.52,0,0,0,0-.35c-.3-.47-.63-.93-.92-1.37l2.09-2.08,1.34.91a.32.32,0,0,0,.39,0c.29-.14.61-.25.9-.39a.47.47,0,0,0,.24-.26c.11-.49.2-1,.29-1.48,0-.15.08-.21.24-.21h2.52c.19,0,.23.09.25.24.09.48.18,1,.29,1.45A.43.43,0,0,0,17,9.4a8.09,8.09,0,0,0,1,.4.47.47,0,0,0,.35,0c.48-.29.93-.62,1.38-.92ZM19.58,10l-1.32.89c-.7-.27-1.32-.52-2-.74A.4.4,0,0,1,16,9.79c-.08-.47-.18-.94-.27-1.42H14.44a.31.31,0,0,0-.19.18c-.09.42-.17.85-.24,1.28a.39.39,0,0,1-.3.33c-.57.21-1.14.45-1.7.71a.32.32,0,0,1-.36,0L10.43,10l-1,1,.83,1.22a.32.32,0,0,1,0,.36c-.26.56-.5,1.12-.71,1.7a.39.39,0,0,1-.36.3c-.41.07-.83.15-1.24.25a.29.29,0,0,0-.19.21c0,.35,0,.69,0,1,0,.18.06.23.23.25l1.25.23a.37.37,0,0,1,.31.28c.21.58.45,1.14.7,1.7a.34.34,0,0,1,0,.41c-.29.41-.56.82-.81,1.19l1,1c.39-.26.81-.54,1.21-.83a.31.31,0,0,1,.37,0c.56.25,1.12.5,1.7.71a.38.38,0,0,1,.29.32c.07.42.16.84.23,1.26,0,.15.08.21.24.2h1c.17,0,.24,0,.27-.21.06-.41.16-.82.22-1.23,0-.19.11-.27.31-.34.57-.21,1.12-.45,1.67-.7a.35.35,0,0,1,.41,0l1.2.82,1-1c-.26-.38-.52-.79-.8-1.18a.37.37,0,0,1,0-.46c.25-.53.48-1.09.68-1.65a.38.38,0,0,1,.34-.3L22,16.37c.16,0,.22-.09.22-.26,0-.33,0-.66,0-1s0-.26-.23-.29c-.42-.06-.84-.14-1.25-.23a.46.46,0,0,1-.27-.2c-.26-.65-.51-1.32-.79-2.06l.9-1.32Z"/><path class="cls-1" d="M17.72,28.06l.14.71L20.28,27l-2.91-.85.16,1a11.37,11.37,0,0,1-9.88-2.39,11.44,11.44,0,0,1-4.22-9.88l.89.08A10.59,10.59,0,0,0,9,24.56a10.42,10.42,0,0,0,7.49,1.77c0-.25-.07-.47-.11-.69a.46.46,0,0,1,.55-.59,5.18,5.18,0,0,1,.53.14l3.83,1.11c.17.05.36.05.39.31a.57.57,0,0,1-.23.6c-.56.41-1.1.83-1.65,1.24l-1.92,1.44a.48.48,0,0,1-.78-.28c0-.15-.06-.31-.09-.48-5.36.54-9.73-1.21-13-5.55a13,13,0,0,1-2.47-8.79l.86.07A12.41,12.41,0,0,0,6.78,25.25,12.49,12.49,0,0,0,17.72,28.06Z"/><path class="cls-1" d="M28.48,16.65l-.89-.07A12.43,12.43,0,0,0,23.44,6.39,12.48,12.48,0,0,0,12.88,3.28l-.13-.84-2.51,1.7,2.86,1L13,4.29a11.44,11.44,0,0,1,9.7,2.82,11.42,11.42,0,0,1,3.86,9.29.66.66,0,0,1-.19,0l-.71-.05a10.61,10.61,0,0,0-4.45-9.31,10.35,10.35,0,0,0-7.21-2l.06.56a.47.47,0,0,1-.66.53l-2.33-.8L9.15,4.71A.48.48,0,0,1,9,3.91a2.4,2.4,0,0,1,.26-.18l3.55-2.41a.47.47,0,0,1,.76.33c0,.2.06.4.1.61a13.43,13.43,0,0,1,12.5,5.9A13.13,13.13,0,0,1,28.48,16.65Z"/><path class="cls-1" d="M3.65,8.36l.76.49-.88,1.6-.81-.37Z"/><path class="cls-1" d="M1.69,13.33l.48-1.88.85.28L2.57,13.5Z"/><path class="cls-1" d="M28,19.54l-.86-.25.34-1.52.88.14Z"/><path class="cls-1" d="M26.85,22.25l-.79-.44.67-1.41.83.33Z"/><path class="cls-1" d="M4.84,12.32l-.37,1.43-.88-.16L4,12Z"/><path class="cls-1" d="M5.22,9.47,6,10l-.71,1.31-.81-.38Z"/><path class="cls-1" d="M26.16,18.91l-.86-.24.26-1.13.87.15Z"/><path class="cls-1" d="M25.21,21.25l-.78-.43.49-1.05.83.34Z"/><path class="cls-1" d="M6.63,9.06,5.94,8.5l.6-.71.65.62Z"/><path class="cls-1" d="M5.81,7.1l-.57.65-.7-.56.61-.7Z"/><path class="cls-1" d="M24.93,23.51l.51-.7.74.5-.55.75Z"/><path class="cls-1" d="M23.81,21.8l.73.51-.41.56-.71-.54Z"/><path class="cls-1" d="M15,18.74a3.13,3.13,0,1,1,3.13-3.13A3.13,3.13,0,0,1,15,18.74Zm0-5.35a2.2,2.2,0,0,0-2.23,2.22A2.23,2.23,0,1,0,15,13.39Z"/></svg>