<svg class="cc-profmenu-ico" xmlns="http://www.w3.org/2000/svg" viewBox="0 0 30 30">
  <path class="cc-profmenu-ico" d="M24.94,17a1.13,1.13,0,0,1-.6.72s-.06.13-.06.2v4.35a1,1,0,0,1-.74,1,1.58,1.58,0,0,1-.38,0q-8.16,0-16.31,0a1,1,0,0,1-1.13-1.12V17.94a.26.26,0,0,0-.15-.29,1,1,0,0,1-.51-.88V9.49a1,1,0,0,1,.73-1,1.47,1.47,0,0,1,.42-.05h4.15c0-.41,0-.8,0-1.18a2.55,2.55,0,0,1,.16-.83,1.48,1.48,0,0,1,1.41-1c2,0,4.07,0,6.1,0a1.61,1.61,0,0,1,1.6,1.72V8.42h.25c1.25,0,2.51,0,3.76,0a1.16,1.16,0,0,1,1.29.81Zm-8.62,1.18.21,0,2.64-.36,4.65-.64c.38,0,.46-.13.46-.52v-7c0-.45-.08-.53-.53-.53H6.22c-.4,0-.5.09-.5.5v7.09c0,.31.1.42.4.46l6.74.93.82.1v-.49a1,1,0,0,1,1-1h.73a1,1,0,0,1,1,1C16.33,17.84,16.32,18,16.32,18.17Zm-9.94-.33v4.35c0,.38.1.48.49.48H23.14c.38,0,.48-.1.48-.48V17.84l-7.3,1c0,.29,0,.56,0,.82a1,1,0,0,1-1,1c-.18,0-.36,0-.54,0a1,1,0,0,1-1.1-1.09v-.74Zm5.31-9.43V7.15c0-.26.12-.38.38-.38h5.86c.26,0,.38.12.38.39s0,.69,0,1c0,.07,0,.14,0,.21H19V6.92a.19.19,0,0,0,0-.07,1,1,0,0,0-1.05-.74H12.77c-.27,0-.54,0-.82,0A1,1,0,0,0,11,7c0,.44,0,.88,0,1.32,0,0,0,.05,0,.07Zm.67,0h5.28v-1H12.36Zm3.3,10.27c0-.32,0-.63,0-.95a.32.32,0,0,0-.35-.35h-.62a.32.32,0,0,0-.35.35v1.93a.33.33,0,0,0,.36.36c.18,0,.37,0,.55,0s.41-.12.41-.41Z" />
  <path class="cc-profmenu-ico" class="cls-2" d="M15,1.25A13.75,13.75,0,1,1,1.25,15,13.77,13.77,0,0,1,15,1.25M15,0A15,15,0,1,0,30,15,15,15,0,0,0,15,0Z" />
</svg>