<svg class="cc-profmenu-ico" xmlns="http://www.w3.org/2000/svg" viewBox="0 0 30 30">
  <path class="cc-profmenu-ico" d="M11.07,5.82h.66l.11,0a2.8,2.8,0,0,1,1.63.82.46.46,0,0,0,.37.15H24.35a.82.82,0,0,1,.61.28,3.3,3.3,0,0,1,.31.51v9.75a1.07,1.07,0,0,1-1.24.81h-2.3c-.24,0-.52-.07-.7,0s-.27.38-.4.59-.37.62-.56.93a1.34,1.34,0,0,1-1.32,2.31c-1-.44-2.38-.88-3.33-1.32l-.52-.23v4.61a.67.67,0,0,1-.74.75h-6a.68.68,0,0,1-.74-.75V22.69l-.09,0a1.32,1.32,0,0,1-1.89-1.29c0-1.87,0-3.73,0-5.6a2.86,2.86,0,0,1,1.17-2.37.31.31,0,0,0,.14-.29V7.89a1,1,0,0,1,1-1.06H9a.39.39,0,0,0,.32-.13,2.85,2.85,0,0,1,1.34-.78ZM7.44,13a8.67,8.67,0,0,1,1-.12c1.79,0,3.59,0,5.38,0a2.91,2.91,0,0,1,2.82,2.34c.14.7.16,1.42.23,2.14,0,.16.07.2.22.2h3.4a.3.3,0,0,0,.29-.17c.2-.34.4-.67.61-1a.33.33,0,0,1,.45-.13.35.35,0,0,1,.11.48l-.19.31-.3.5h2.73c.35,0,.46-.11.46-.47V8c0-.38-.1-.48-.47-.48H14.07a3.06,3.06,0,0,1,.22,2A3,3,0,0,1,9.88,11.4,3,3,0,0,1,8.71,7.49H7.89c-.35,0-.45.11-.45.47v5Zm6.79,10.22c0-.06,0-.11,0-.16V20.3a.78.78,0,0,0-.11-.42,1.44,1.44,0,0,1-.2-.52c-.06-.39-.09-.78-.14-1.17-.06-.54-.11-1.08-.17-1.63a.32.32,0,0,1,.21-.37c.23-.09.42.06.45.35.09.86.19,1.73.28,2.59a.79.79,0,0,0,.51.71c.69.3,1.83.62,2.51.93l1.46.67a.62.62,0,0,0,.7-.08.63.63,0,0,0,.23-.65.68.68,0,0,0-.43-.5l-3-1.36c-.14-.07-.26-.14-.28-.32-.09-.9-.21-1.81-.26-2.72a2.35,2.35,0,0,0-2.35-2.31H8.46a2.34,2.34,0,0,0-2.34,2.38v5.57a.68.68,0,0,0,.39.67.66.66,0,0,0,.93-.64V16.67a1.06,1.06,0,0,1,0-.25.3.3,0,0,1,.35-.24.32.32,0,0,1,.29.3v6.7ZM13.72,8.83a2.31,2.31,0,1,0-2.31,2.34A2.33,2.33,0,0,0,13.72,8.83ZM8.11,25.18h6.12V23.87H8.11Zm8.82-7,0,.07,2.57,1.19.76-1.26Z" />
  <path class="cc-profmenu-ico" d="M18.51,8.83h2.71a.41.41,0,0,1,.27.07c.07.08.15.22.12.31s-.14.2-.24.27-.13,0-.2,0H15.69a.33.33,0,0,1-.32-.35.32.32,0,0,1,.34-.32h2.8Z" />
  <path class="cc-profmenu-ico" d="M20.33,10.5h2.46a.74.74,0,0,1,.21,0,.32.32,0,0,1,0,.64.75.75,0,0,1-.21,0h-5c-.33,0-.49-.12-.49-.34s.17-.33.48-.33Z" />
  <path class="cc-profmenu-ico" d="M18.66,12.83H16.77c-.27,0-.41-.11-.41-.33s.14-.34.41-.34h3.8c.25,0,.41.14.4.35s-.14.32-.4.32Z" />
  <path class="cc-profmenu-ico" d="M16.18,11.16H16a.33.33,0,0,1-.33-.34A.32.32,0,0,1,16,10.5h.34a.33.33,0,0,1,0,.66Z" />
  <path class="cc-profmenu-ico" d="M22.79,8.83H23a.34.34,0,0,1,.33.32.33.33,0,0,1-.31.34h-.33a.35.35,0,0,1-.36-.34.35.35,0,0,1,.36-.33Z" />
  <path class="cc-profmenu-ico" class="cls-2" d="M15,1.25A13.75,13.75,0,1,1,1.25,15,13.77,13.77,0,0,1,15,1.25M15,0A15,15,0,1,0,30,15,15,15,0,0,0,15,0Z" />
</svg>