<svg class="cc-profmenu-ico" xmlns="http://www.w3.org/2000/svg" viewBox="0 0 30 30">
  <path class="cc-profmenu-ico" d="M19.75,11.71c-.22.32-.44.64-.65,1a.31.31,0,0,0,0,.25c.07.22.19.42.26.64a.24.24,0,0,0,.22.19c.33.05.65.12,1,.18.13,0,.18.06.18.2,0,.58,0,1.16,0,1.73,0,.12,0,.17-.16.19-.34.06-.69.12-1,.2a.34.34,0,0,0-.18.15c-.1.22-.2.45-.28.68a.3.3,0,0,0,0,.23c.22.34.45.66.66,1L18.3,19.76c-.32-.21-.65-.43-1-.66a.24.24,0,0,0-.27,0,4,4,0,0,1-.6.26.28.28,0,0,0-.23.27c-.05.32-.12.64-.18,1,0,.11-.06.16-.18.16-.59,0-1.17,0-1.75,0-.12,0-.16,0-.18-.16-.06-.35-.13-.69-.21-1a.28.28,0,0,0-.15-.17c-.21-.1-.43-.19-.65-.27a.31.31,0,0,0-.25,0c-.33.21-.66.44-1,.65l-1.46-1.47c.19-.29.4-.61.62-.92a.26.26,0,0,0,0-.31,2.31,2.31,0,0,1-.23-.54.34.34,0,0,0-.34-.28l-.91-.17c-.12,0-.16-.07-.16-.19V14.12c0-.12.05-.16.16-.18.35-.06.69-.12,1-.2a.31.31,0,0,0,.17-.15q.15-.33.27-.66a.31.31,0,0,0,0-.25c-.21-.33-.43-.65-.64-1l1.47-1.46.94.64a.21.21,0,0,0,.27,0c.21-.1.43-.17.64-.27a.3.3,0,0,0,.16-.19c.08-.34.15-.68.21-1,0-.11.06-.15.17-.15h1.77c.13,0,.15.06.17.17.06.34.13.68.2,1a.34.34,0,0,0,.15.18,5.58,5.58,0,0,0,.67.28.31.31,0,0,0,.25,0c.33-.21.66-.44,1-.65Zm-1.53-.64-.94.63c-.49-.19-.92-.37-1.37-.53a.27.27,0,0,1-.22-.25c-.06-.34-.13-.67-.19-1h-.89a.19.19,0,0,0-.14.12c-.06.3-.12.6-.17.9,0,.13-.08.18-.21.23-.4.15-.8.32-1.19.5a.21.21,0,0,1-.25,0c-.29-.21-.59-.4-.86-.59l-.72.72c.18.28.38.57.58.86a.23.23,0,0,1,0,.25c-.18.39-.35.79-.5,1.2a.28.28,0,0,1-.25.21c-.29,0-.59.1-.88.17a.19.19,0,0,0-.12.15c0,.24,0,.49,0,.73s0,.16.16.18c.29,0,.58.11.88.16a.23.23,0,0,1,.21.19c.15.41.32.81.5,1.2a.24.24,0,0,1,0,.28l-.57.84.72.72.86-.58a.21.21,0,0,1,.25,0c.39.18.79.35,1.2.5a.27.27,0,0,1,.2.23c0,.29.12.58.16.88,0,.11.06.15.17.14s.48,0,.71,0,.17,0,.19-.15c0-.29.11-.57.16-.86a.26.26,0,0,1,.21-.24c.4-.14.79-.31,1.18-.49a.24.24,0,0,1,.28,0c.29.21.58.4.85.58l.72-.72c-.18-.27-.37-.56-.56-.83a.27.27,0,0,1,0-.32c.18-.38.34-.77.48-1.16a.29.29,0,0,1,.24-.22c.29,0,.57-.11.86-.15.12,0,.16-.07.16-.19s0-.46,0-.69,0-.18-.16-.2c-.3,0-.59-.1-.88-.16a.34.34,0,0,1-.19-.14c-.19-.46-.36-.93-.55-1.45l.62-.92Z" />
  <path class="cc-profmenu-ico" d="M16.9,23.74l.11.5L18.71,23l-2.05-.59.12.67a8,8,0,0,1-6.94-1.68,8,8,0,0,1-3-6.93l.63.05a7.43,7.43,0,0,0,3.28,6.8A7.28,7.28,0,0,0,16,22.53c0-.18,0-.33-.08-.49a.32.32,0,0,1,.38-.41c.13,0,.25.06.38.09l2.69.79c.11,0,.25,0,.27.21a.42.42,0,0,1-.17.43L18.36,24,17,25a.34.34,0,0,1-.54-.2,3.4,3.4,0,0,1-.07-.34,9.44,9.44,0,0,1-9.1-3.9,9.15,9.15,0,0,1-1.74-6.16l.6,0A8.91,8.91,0,0,0,16.9,23.74Z" />
  <path class="cc-profmenu-ico" d="M24.46,15.73l-.63-.05A8.9,8.9,0,0,0,13.51,6.34l-.09-.59L11.66,7l2,.69-.05-.58a8.18,8.18,0,0,1,9.52,8.5H23l-.5,0A7.49,7.49,0,0,0,19.37,9a7.23,7.23,0,0,0-5.06-1.37c0,.13,0,.26,0,.39a.33.33,0,0,1-.46.37l-1.64-.56-1.36-.47a.33.33,0,0,1-.12-.56L11,6.66,13.44,5A.33.33,0,0,1,14,5.2c0,.14,0,.28.07.43a9.43,9.43,0,0,1,8.78,4.14A9.21,9.21,0,0,1,24.46,15.73Z" />
  <path class="cc-profmenu-ico" d="M7,9.91l.53.35-.62,1.12-.57-.26Z" />
  <path class="cc-profmenu-ico" d="M5.65,13.4,6,12.08l.6.2-.32,1.24Z" />
  <path class="cc-profmenu-ico" d="M24.11,17.76l-.61-.18.24-1.06.62.1Z" />
  <path class="cc-profmenu-ico" d="M23.32,19.66l-.56-.31.47-1,.59.24Z" />
  <path class="cc-profmenu-ico" d="M7.87,12.69l-.27,1L7,13.58l.28-1.09Z" />
  <path class="cc-profmenu-ico" d="M8.13,10.69l.53.34-.5.92-.57-.26Z" />
  <path class="cc-profmenu-ico" d="M22.83,17.32l-.6-.17.18-.79.61.1Z" />
  <path class="cc-profmenu-ico" d="M22.17,19l-.55-.3.34-.74.58.24Z" />
  <path class="cc-profmenu-ico" d="M9.12,10.4,8.63,10l.43-.5.46.43Z" />
  <path class="cc-profmenu-ico" d="M8.54,9l-.4.45-.48-.39.42-.49Z" />
  <path class="cc-profmenu-ico" d="M22,20.55l.36-.5.52.36-.39.52Z" />
  <path class="cc-profmenu-ico" d="M21.18,19.35l.51.35-.28.4-.5-.38Z" />
  <path class="cc-profmenu-ico" d="M15,17.2A2.2,2.2,0,1,1,17.19,15,2.2,2.2,0,0,1,15,17.2Zm0-3.76A1.56,1.56,0,1,0,16.56,15,1.56,1.56,0,0,0,15,13.44Z" />
  <path class="cc-profmenu-ico" d="M15,1.25A13.75,13.75,0,1,1,1.25,15,13.77,13.77,0,0,1,15,1.25M15,0A15,15,0,1,0,30,15,15,15,0,0,0,15,0Z" />
</svg>