<svg class="cc-profmenu-ico" xmlns="http://www.w3.org/2000/svg" viewBox="0 0 30 30">
  <path class="cc-profmenu-ico" d="M8.93,25.49l-.29-.09a2,2,0,0,1-1.18-3c1.65-2.82,3.29-5.65,5-8.46a2.55,2.55,0,0,0,.43-1.6c0-.24,0-.48,0-.72a.33.33,0,0,0-.12-.19A1.29,1.29,0,0,1,12,10a1.3,1.3,0,0,1,1.32-1h3.32a1.31,1.31,0,0,1,.59,2.51l-.07,0c0,.53,0,1.08,0,1.62a.66.66,0,0,0,.1.25q2.61,4.47,5.2,8.94a2,2,0,0,1-.31,2.59,2.51,2.51,0,0,1-1.09.55ZM13.7,11.61c0,.55,0,1.09,0,1.62a.89.89,0,0,1-.12.43q-2.67,4.61-5.35,9.2a1.1,1.1,0,0,0-.15.81,1.16,1.16,0,0,0,1.2.95H20.85a1.19,1.19,0,0,0,1.07-.9,1.27,1.27,0,0,0-.19-.95l-5.19-8.9A1.52,1.52,0,0,1,16.3,13c0-.46,0-.92,0-1.38ZM15,9.86H13.35c-.32,0-.51.17-.52.43a.45.45,0,0,0,.51.44h3.32c.31,0,.51-.17.51-.43a.45.45,0,0,0-.51-.44Z" />
  <path class="cc-profmenu-ico" d="M15,5.21a2,2,0,1,1,1.94,2A2,2,0,0,1,15,5.21ZM17,6.3a1.09,1.09,0,1,0-1.08-1.09A1.09,1.09,0,0,0,17,6.3Z" />
  <path class="cc-profmenu-ico" d="M11.1,6.71a1.41,1.41,0,1,1,1.39,1.41A1.41,1.41,0,0,1,11.1,6.71Zm2,0a.55.55,0,0,0-.54-.54.56.56,0,0,0-.55.54.55.55,0,0,0,1.09,0Z" />
  <path class="cc-profmenu-ico" d="M10.25,22.88H13a.43.43,0,1,1,0,.86c-1,0-2,0-3,0a.77.77,0,0,1-.64-1.17c.22-.42.48-.83.72-1.24.36-.62.71-1.24,1.08-1.85a.8.8,0,0,1,.32-.31,3.32,3.32,0,0,1,2.25-.31c.8.15,1.58.37,2.37.51a6.66,6.66,0,0,0,1.34.07,2.24,2.24,0,0,0,.65-.21.44.44,0,0,1,.62.17c.61,1.05,1.23,2.1,1.83,3.15a.78.78,0,0,1-.7,1.19c-1,0-1.93,0-2.89,0a.43.43,0,1,1,0-.86h2.75l-.1-.19L18.3,20.35c-.08-.14-.15-.17-.3-.12a4.5,4.5,0,0,1-2.36-.06c-.75-.16-1.5-.33-2.26-.47a2.18,2.18,0,0,0-1.26.16.46.46,0,0,0-.23.18c-.54.91-1.07,1.83-1.6,2.75Z" />
  <path class="cc-profmenu-ico" d="M15,23.75a.43.43,0,0,1-.43-.44.44.44,0,0,1,.43-.42.43.43,0,1,1,0,.86Z" />
  <path class="cc-profmenu-ico" d="M15,1.25A13.75,13.75,0,1,1,1.25,15,13.77,13.77,0,0,1,15,1.25M15,0A15,15,0,1,0,30,15,15,15,0,0,0,15,0Z" />
</svg>