<svg class="cc-profmenu-ico" xmlns="http://www.w3.org/2000/svg" viewBox="0 0 30 30">
  <path class="cc-profmenu-ico" d="M15,25.65H11.85a.24.24,0,0,1-.24-.24V22.5a3.4,3.4,0,0,1-3.14-3.14H5.55a3.39,3.39,0,0,1-.24-6.78,6.54,6.54,0,0,1,9.93-5.36,4.89,4.89,0,0,1,2.91-1,5,5,0,0,1,4.62,3.15h.1a5,5,0,0,1,0,9.94H18.3l-3.08,6.16A.25.25,0,0,1,15,25.65Zm-2.9-.49h2.75L17.93,19a.25.25,0,0,1,.22-.13h4.72a4.48,4.48,0,0,0,0-9H22.6a.24.24,0,0,1-.23-.16,4.47,4.47,0,0,0-7-2,.24.24,0,0,1-.28,0A6,6,0,0,0,5.8,12.81a.25.25,0,0,1-.25.25,2.91,2.91,0,0,0,0,5.81H8.7a.25.25,0,0,1,.25.24,2.9,2.9,0,0,0,2.9,2.9.25.25,0,0,1,.25.25Z" />
  <path class="cc-profmenu-ico" d="M15,22.38H11.85a3.27,3.27,0,1,1,0-6.54H15a.12.12,0,0,1,.12.12v6.3A.12.12,0,0,1,15,22.38Zm-3.15-6.3a3,3,0,1,0,0,6.06h3V16.08Z" />
  <path class="cc-profmenu-ico" d="M18.15,19.23H5.55a.12.12,0,0,1-.12-.12v-6.3a6.42,6.42,0,1,1,12.84,0v6.3A.12.12,0,0,1,18.15,19.23ZM5.68,19H18V12.81a6.18,6.18,0,0,0-12.35,0Z" />
  <path class="cc-profmenu-ico" d="M15,25.53H11.85a.12.12,0,0,1-.12-.12v-6.3a.12.12,0,0,1,.12-.12h6.3a.11.11,0,0,1,.1.06.1.1,0,0,1,0,.12l-3.15,6.29A.11.11,0,0,1,15,25.53Zm-3-.24h2.95l3-6.06H12Z" />
  <path class="cc-profmenu-ico" d="M8.7,19.23H5.55a3.27,3.27,0,0,1,0-6.54H8.7a.12.12,0,0,1,.12.12v6.3A.12.12,0,0,1,8.7,19.23ZM5.55,12.94a3,3,0,0,0,0,6h3v-6Z" />
  <path class="cc-profmenu-ico" d="M22.87,19.23H18.15a.12.12,0,0,1-.12-.12V9.66a.12.12,0,0,1,.12-.12h4.72a4.85,4.85,0,1,1,0,9.69ZM18.27,19h4.6a4.6,4.6,0,0,0,0-9.2h-4.6Z" />
  <path class="cc-profmenu-ico" d="M22.87,16.08H13.43A.12.12,0,0,1,13.3,16V11.24a4.85,4.85,0,1,1,9.7,0V16A.12.12,0,0,1,22.87,16.08Zm-9.32-.24h9.2v-4.6a4.6,4.6,0,1,0-9.2,0Z" />
  <path class="cc-profmenu-ico" class="cls-2" d="M15,1.25A13.75,13.75,0,1,1,1.25,15,13.77,13.77,0,0,1,15,1.25M15,0A15,15,0,1,0,30,15,15,15,0,0,0,15,0Z" />
</svg>