<svg id="Camada_1" data-name="Camada 1" xmlns="http://www.w3.org/2000/svg" viewBox="0 0 30 30"><defs><style>.cls-1{fill:#7fd1f5;}</style></defs><title>orientation</title><path class="cls-1" d="M13.94,29c-.54-.07-1.08-.13-1.61-.22a13.82,13.82,0,0,1-7.65-4A13.9,13.9,0,0,1,.84,17.43,14.19,14.19,0,0,1,28.12,10a13.5,13.5,0,0,1,.79,3.72,2.56,2.56,0,0,0,.05.27V15.6c0,.1,0,.2-.05.29-.07.52-.11,1-.21,1.54a13.83,13.83,0,0,1-3.84,7.31,13.83,13.83,0,0,1-7.64,4c-.54.09-1.08.15-1.62.22Zm14.11-14.2A13.28,13.28,0,1,0,14.77,28.05,13.32,13.32,0,0,0,28.05,14.76Z"/><path class="cls-1" d="M26.23,15a11.46,11.46,0,0,0-3-7.86,11,11,0,0,0-6.77-3.66A11.27,11.27,0,0,0,7.83,5.64c-.18.14-.34.28-.52.41a.45.45,0,0,1-.67,0,.47.47,0,0,1,.11-.66A12.62,12.62,0,0,1,9.54,3.55a12.2,12.2,0,0,1,5.64-1.14A12.12,12.12,0,0,1,24,6.52a11.68,11.68,0,0,1,3.09,7,12,12,0,0,1-4.67,11,11.51,11.51,0,0,1-9,2.57A12,12,0,0,1,3.1,18.86a11.82,11.82,0,0,1,.46-9.34A12,12,0,0,1,5.32,6.77.46.46,0,0,1,6,6.65a.47.47,0,0,1,0,.69A24.74,24.74,0,0,0,4.52,9.65a11,11,0,0,0-1.13,6.63A11,11,0,0,0,5.87,22a11.21,11.21,0,0,0,6.93,4.07,11,11,0,0,0,8.32-1.78,11.25,11.25,0,0,0,5-8.15C26.19,15.69,26.21,15.23,26.23,15Z"/><path class="cls-1" d="M21.93,8.12a1.57,1.57,0,0,1-.1.25q-2.31,4.24-4.64,8.49a.85.85,0,0,1-.32.33l-8.5,4.64a.46.46,0,0,1-.63,0,.47.47,0,0,1,0-.63l4.64-8.5a.85.85,0,0,1,.33-.32l8.49-4.64C21.57,7.49,21.94,7.66,21.93,8.12ZM20.31,9.27l0,0L13.6,12.87l3.07,3.07Zm-7.42,4.3-3.66,6.7,0,0L16,16.65Z"/><path class="cls-1" d="M6,15.22H4.75c-.33,0-.53-.17-.53-.44s.19-.46.53-.46H6C6.66,9.44,9.43,6.67,14.32,6V4.71a.43.43,0,0,1,.36-.48c.3-.07.53.13.54.47s0,.86,0,1.3c.49.08,1,.14,1.43.24a7.61,7.61,0,0,1,2.25.82.44.44,0,0,1,.1.78.53.53,0,0,1-.6,0A8.06,8.06,0,0,0,16.11,7a7.82,7.82,0,0,0-8,3.59,7.73,7.73,0,0,0-.32,7.74l.09.17a.46.46,0,0,1-.22.61.44.44,0,0,1-.59-.21c-.16-.33-.32-.66-.46-1a8.43,8.43,0,0,1-.56-2.48A1.48,1.48,0,0,0,6,15.22Z"/><path class="cls-1" d="M15.22,23.57v1.21c0,.35-.17.55-.45.55s-.44-.21-.45-.55V23.55a16,16,0,0,1-1.62-.3c-.69-.21-1.35-.48-2-.75a.46.46,0,0,1-.28-.65.47.47,0,0,1,.69-.15,7.85,7.85,0,0,0,8.82-1,7.85,7.85,0,0,0,1.92-9.35,2.93,2.93,0,0,1-.19-.4.44.44,0,0,1,.78-.4,3.45,3.45,0,0,1,.28.54A8.72,8.72,0,0,1,23.48,14a2,2,0,0,0,0,.32h1.26c.35,0,.55.17.55.45s-.2.44-.55.45H23.57C22.87,20.11,20.11,22.87,15.22,23.57Z"/></svg>