<svg xmlns="http://www.w3.org/2000/svg" viewBox="0 0 30 30"><defs><style>.cls-1{fill:#7fd1f5;}</style></defs><title>patent</title><g id="Camada_1" data-name="Camada 1"><path class="cls-1" d="M21.62,1.32l.17.07a2,2,0,0,1,1.51,1.9c0,1.82,0,3.64,0,5.46,0,.3-.17.47-.42.46s-.39-.17-.39-.48V3.56a1.25,1.25,0,0,0-1.41-1.42H7.52c-.43,0-.43,0-.43.43,0,1,0,2.08,0,3.12A1.49,1.49,0,0,1,5.47,7.33c-1.07,0-2.14,0-3.2,0H1.94c0,.13,0,.25,0,.36V27.18A1.21,1.21,0,0,0,3.25,28.5H21.13a1.24,1.24,0,0,0,1.36-1.35c0-.14,0-.28,0-.41a.41.41,0,0,1,.81,0,2.16,2.16,0,0,1-1.66,2.59s-.05,0-.08,0H2.81l-.05,0A2,2,0,0,1,1.1,27.11q0-9.67,0-19.35A2.33,2.33,0,0,1,1.83,6C3.06,4.79,4.29,3.57,5.5,2.33A3.34,3.34,0,0,1,7,1.32ZM6.27,2.84,2.62,6.5h3a.6.6,0,0,0,.67-.68c0-.57,0-1.15,0-1.72Z"/><path class="cls-1" d="M20,21.7a1.67,1.67,0,0,1-1.42-1.61.77.77,0,0,0-.51-.71,1.66,1.66,0,0,1-.82-2.5.8.8,0,0,0,0-.9,1.61,1.61,0,0,1,.78-2.46.88.88,0,0,0,.56-.8,1.62,1.62,0,0,1,2-1.49,1,1,0,0,0,1-.34,1.6,1.6,0,0,1,2.47,0,.94.94,0,0,0,1,.33,1.61,1.61,0,0,1,2,1.47,1,1,0,0,0,.63.85,1.6,1.6,0,0,1,.76,2.37.94.94,0,0,0,0,1,1.62,1.62,0,0,1-.76,2.38,1,1,0,0,0-.63.87A1.54,1.54,0,0,1,26,21.63c-.18.06-.24.13-.23.32v3.39a.83.83,0,0,1-.76.93,1.23,1.23,0,0,1-.62-.14c-.45-.25-.87-.53-1.3-.8a.27.27,0,0,0-.34,0c-.43.28-.87.55-1.31.81A.87.87,0,0,1,20,25.35c0-1.11,0-2.23,0-3.34Zm8-6.57a.86.86,0,0,0-.54-.84,1.66,1.66,0,0,1-1.1-1.47A.8.8,0,0,0,25.27,12a1.66,1.66,0,0,1-1.72-.57.81.81,0,0,0-1.32,0,1.63,1.63,0,0,1-1.71.57.82.82,0,0,0-1.09.81,1.56,1.56,0,0,1-1,1.39A.84.84,0,0,0,18,15.6a1.5,1.5,0,0,1,0,1.66.9.9,0,0,0,.45,1.39,1.5,1.5,0,0,1,1,1.34.84.84,0,0,0,1.15.84,1.59,1.59,0,0,1,1.59.51c.5.55.93.55,1.45,0a1.58,1.58,0,0,1,1.58-.51c.69.15,1.07-.11,1.15-.81a1.63,1.63,0,0,1,1-1.41.82.82,0,0,0,.41-1.27,1.65,1.65,0,0,1,0-1.81A3.3,3.3,0,0,0,28,15.13ZM24.91,25.5V21.62a.72.72,0,0,0-.69.28,1.67,1.67,0,0,1-2.65,0,.72.72,0,0,0-.7-.29v3.86l.29-.15c.35-.22.72-.42,1.06-.66a1.06,1.06,0,0,1,1.36,0C24,25,24.44,25.21,24.91,25.5Z"/><path class="cls-1" d="M14.73,4.16H18.8a.91.91,0,0,1,1,1V6.26c0,.72-.35,1.06-1.08,1.07H13.16c-.29,0-.47-.18-.45-.43s.18-.38.47-.38h5.46c.36,0,.36,0,.36-.37s0-.62,0-.92S19,5,18.77,5c-2.71,0-5.43,0-8.14,0-.17,0-.25,0-.24.23,0,.36,0,.72,0,1.07,0,.18.06.24.24.24h.57a.4.4,0,0,1,0,.8,4.5,4.5,0,0,1-.9,0,.86.86,0,0,1-.76-.86c0-.46,0-.92,0-1.37a.89.89,0,0,1,.95-.91Z"/><path class="cls-1" d="M9.83,17.83c-1.68,0-3.37,0-5,0a1,1,0,0,1-.3,0,.38.38,0,0,1-.29-.42A.4.4,0,0,1,4.54,17h10.6a.38.38,0,0,1,.36.38.4.4,0,0,1-.34.43,2.43,2.43,0,0,1-.27,0C13.2,17.84,11.52,17.83,9.83,17.83Z"/><path class="cls-1" d="M9.83,15H4.53a.35.35,0,0,1-.33-.37.74.74,0,0,1,.26-.4c.08-.06.23,0,.35,0H14.89a1,1,0,0,1,.3,0,.37.37,0,0,1,.31.42.38.38,0,0,1-.36.37H9.83Z"/><path class="cls-1" d="M9.86,19.9h5a1.51,1.51,0,0,1,.3,0c.19,0,.33.17.3.36a.73.73,0,0,1-.26.39c-.07.07-.22,0-.34,0H4.7c-.32,0-.51-.17-.51-.42s.19-.4.51-.4H9.86Z"/><path class="cls-1" d="M9.85,11.25h5a1.77,1.77,0,0,1,.33,0c.19.05.33.19.29.37a.75.75,0,0,1-.27.39c-.07.06-.21,0-.32,0H4.55a.39.39,0,0,1-.36-.41.38.38,0,0,1,.38-.39H9.85Z"/><path class="cls-1" d="M7.23,24.12H9.75c.34,0,.52.15.52.42s-.2.4-.52.4h-5c-.32,0-.51-.16-.51-.41s.18-.41.5-.41Z"/><path class="cls-1" d="M22.89,19.87a3.43,3.43,0,1,1,3.44-3.44A3.44,3.44,0,0,1,22.89,19.87Zm0-6a2.61,2.61,0,1,0,0,5.22,2.61,2.61,0,0,0,0-5.22Z"/></g></svg>