<svg xmlns="http://www.w3.org/2000/svg" viewBox="0 0 30 30"><defs><style>.cls-1{fill:#7fd1f5;}</style></defs><title>professional</title><g id="Camada_1" data-name="Camada 1"><path class="cls-1" d="M29.48,18.36a1.73,1.73,0,0,1-.88,1.05c-.06,0-.08.19-.08.29q0,3.16,0,6.33a1.44,1.44,0,0,1-1.07,1.51,2.65,2.65,0,0,1-.56.05H3.13A1.47,1.47,0,0,1,1.49,26V19.73a.38.38,0,0,0-.23-.41A1.38,1.38,0,0,1,.53,18c0-.82,0-1.64,0-2.46,0-2.72,0-5.43,0-8.15A1.43,1.43,0,0,1,1.59,6a2.08,2.08,0,0,1,.61-.07H8.25c0-.6,0-1.16,0-1.72A3.51,3.51,0,0,1,8.49,3a2.19,2.19,0,0,1,2.06-1.39c2.95,0,5.91,0,8.87,0a2.35,2.35,0,0,1,2.33,2.51c0,.49,0,1,0,1.47v.34h.36c1.83,0,3.66,0,5.49,0a1.68,1.68,0,0,1,1.88,1.18ZM16.93,20.07l.3,0,3.84-.53,6.76-.93c.56-.08.68-.2.68-.76V7.63c0-.66-.12-.78-.77-.78H2.22c-.59,0-.73.14-.73.73V17.9c0,.46.14.62.58.68l9.81,1.35,1.2.15c0-.27,0-.49,0-.72A1.41,1.41,0,0,1,14.46,18a9.55,9.55,0,0,1,1.07,0,1.41,1.41,0,0,1,1.39,1.42C16.93,19.6,16.93,19.82,16.93,20.07ZM2.45,19.6v6.33c0,.55.15.7.71.7H26.85c.55,0,.7-.15.7-.7V19.6L16.93,21.07v1.19a1.45,1.45,0,0,1-1.47,1.47h-.79a1.46,1.46,0,0,1-1.6-1.59V21.07ZM10.18,5.87V4c0-.38.18-.55.55-.55h8.54c.38,0,.54.17.55.56s0,1,0,1.52c0,.1,0,.2,0,.3h.92c0-.73,0-1.45,0-2.16a.43.43,0,0,0,0-.11,1.45,1.45,0,0,0-1.53-1.08H11.75c-.39,0-.79,0-1.19,0A1.38,1.38,0,0,0,9.23,3.84c0,.64,0,1.28,0,1.92a.45.45,0,0,0,0,.11Zm1,0h7.68V4.46H11.16Zm4.8,15c0-.46,0-.93,0-1.39a.48.48,0,0,0-.51-.51q-.45,0-.9,0a.47.47,0,0,0-.51.52c0,.93,0,1.86,0,2.8a.48.48,0,0,0,.53.53c.26,0,.52,0,.79,0,.43,0,.6-.17.6-.6S16,21.27,16,20.82Z"/></g></svg>