<svg xmlns="http://www.w3.org/2000/svg" viewBox="0 0 30 30"><defs><style>.cls-1{fill:#7fd1f5;}</style></defs><title>reunion</title><g id="Camada_1" data-name="Camada 1"><path class="cls-1" d="M15,18.73c-2.35,0-4.71,0-7.06,0-.47,0-.48.2-.48.55s0,.59.49.55a6.64,6.64,0,0,1,1.18,0,1.84,1.84,0,0,1,1.75,1.23c.68,1.82,1.29,3.67,1.92,5.51a.53.53,0,0,1-.31.73c-.31.12-.58-.05-.72-.45-.57-1.64-1.13-3.29-1.7-4.93-.3-.87-.55-1-1.48-1.05H7c-.44,0-.6-.18-.62-.61a.62.62,0,0,1,0-.13,3.6,3.6,0,0,0-1.12-3.26,3.17,3.17,0,0,1-.37-.51.5.5,0,0,1,.1-.74.51.51,0,0,1,.75.12c.41.53.82,1.06,1.21,1.61a.67.67,0,0,0,.63.31c1.22,0,2.44,0,3.66,0,.18,0,.47.16.52-.21s-.1-.75-.45-.84a2.36,2.36,0,0,0-.38,0c-.71,0-1.43,0-2.14,0A1,1,0,0,1,8,16.16c-.72-.92-1.46-1.82-2.18-2.73a1.58,1.58,0,0,0-1.43-.63A1.12,1.12,0,0,0,3.16,14v6.65A1.65,1.65,0,0,0,5,22.5c1.1,0,2.19,0,3.28,0a.89.89,0,0,1,1,.63c.45,1.13,1,2.25,1.43,3.37a.56.56,0,0,1-.24.79c-.29.15-.57,0-.76-.38a1.6,1.6,0,0,0-.1-.23c-.38-.9-.78-1.8-1.15-2.71a.56.56,0,0,0-.63-.4c-.92,0-1.85,0-2.77,0A2.65,2.65,0,0,1,2.1,20.78c-.05-2.27,0-4.54,0-6.81a2,2,0,0,1,1.32-2.05,2.53,2.53,0,0,1,2.76.4A22.71,22.71,0,0,1,8.39,15a1.13,1.13,0,0,0,1.06.5c.53,0,1.07,0,1.6,0a1.61,1.61,0,0,1,1.79,1.76c0,.31.09.41.41.41,1.17,0,2.35,0,3.53,0,.28,0,.39-.07.4-.37a1.56,1.56,0,0,1,1.38-1.76.26.26,0,0,0,.23-.29c0-1,0-2.05,0-3.07a2,2,0,0,0-2-2,33.09,33.09,0,0,0-3.45,0,2.08,2.08,0,0,0-2.06,2.21c0,.51,0,1,0,1.55a.48.48,0,0,1-.47.5A.46.46,0,0,1,10.2,14a5.63,5.63,0,0,1,.42-3.36,2.94,2.94,0,0,1,2.45-1.55c1.19-.06,2.38-.06,3.57,0a3.18,3.18,0,0,1,3.22,3.41c0,.87,0,1.74,0,2.6,0,.3.07.4.39.43a1.47,1.47,0,0,0,1.55-.71c.48-.72,1.08-1.36,1.62-2a2.64,2.64,0,0,1,3-.9,1.94,1.94,0,0,1,1.46,1.72,10,10,0,0,1,0,1.22q0,2.92,0,5.85a2.71,2.71,0,0,1-2.07,2.85,3.61,3.61,0,0,1-.87.07c-.91,0-1.82,0-2.74,0a.53.53,0,0,0-.59.38c-.4,1-.82,1.94-1.24,2.9-.19.43-.45.58-.77.45s-.4-.44-.22-.86c.49-1.15,1-2.29,1.47-3.44a.7.7,0,0,1,.74-.49c1.08,0,2.15,0,3.23,0,1.38,0,2-.61,2-2,0-2.11,0-4.23,0-6.35a1.21,1.21,0,0,0-.67-1.28,1.6,1.6,0,0,0-1.72.31,21.78,21.78,0,0,0-2,2.48,1.82,1.82,0,0,1-1.86.89,11.21,11.21,0,0,0-1.64,0c-.55,0-.78.28-.73.84,0,.17.08.24.26.24h4.12c.2,0,.29-.12.4-.25.37-.51.75-1,1.13-1.52s.61-.47.89-.25.25.52,0,.89-.77,1-1.16,1.55a1,1,0,0,0-.24.69c0,.49,0,1,0,1.47s-.18.63-.65.64H21.28a1.13,1.13,0,0,0-1.3.94L18.3,26.7a1.68,1.68,0,0,1-.16.39.48.48,0,0,1-.59.21.46.46,0,0,1-.36-.5,1.82,1.82,0,0,1,.1-.45q.84-2.46,1.69-4.93a2.1,2.1,0,0,1,2.27-1.61h1c.26,0,.34-.09.35-.34,0-.74,0-.74-.7-.74Z"/><path class="cls-1" d="M15.54,23.57c0,1.12,0,2.24,0,3.36,0,.46-.25.41-.53.4s-.55.08-.55-.39q0-3.36,0-6.72c0-.45.24-.42.53-.41s.56-.07.55.4C15.52,21.33,15.54,22.45,15.54,23.57Z"/><path class="cls-1" d="M15,2.59a2.69,2.69,0,0,0-2.69,2.67,2.69,2.69,0,1,0,5.38,0A2.69,2.69,0,0,0,15,2.59Zm0,4.29a1.61,1.61,0,0,1-1.61-1.63,1.6,1.6,0,0,1,3.2,0A1.61,1.61,0,0,1,15,6.88Z"/><path class="cls-1" d="M4.83,5.28A2.69,2.69,0,1,0,7.46,8,2.69,2.69,0,0,0,4.83,5.28Zm0,4.29a1.61,1.61,0,1,1,0-3.21,1.61,1.61,0,0,1,0,3.21Z"/><path class="cls-1" d="M25.24,5.28A2.69,2.69,0,1,0,27.92,8,2.68,2.68,0,0,0,25.24,5.28Zm0,4.29a1.61,1.61,0,1,1,1.62-1.63A1.61,1.61,0,0,1,25.23,9.57Z"/></g></svg>