<svg xmlns="http://www.w3.org/2000/svg" viewBox="0 0 30 30"><defs><style>.cls-1{fill:#7fd1f5;}</style></defs><title>specialist</title><g id="Camada_1" data-name="Camada 1"><path class="cls-1" d="M23.58,29a.67.67,0,0,1-.3-.65,8.09,8.09,0,0,0-4.14-6.95,8.27,8.27,0,0,0-12.29,5.8,9.88,9.88,0,0,0-.11,1.22.6.6,0,0,1-.33.58H6.14a.61.61,0,0,1-.28-.6,9.14,9.14,0,0,1,6.49-8.59l.24-.08a5.27,5.27,0,0,1-2.85-4.81,5,5,0,0,1,1.72-3.79,5.27,5.27,0,1,1,5.95,8.59l.47.16a9.17,9.17,0,0,1,6.28,8.56.56.56,0,0,1-.31.56ZM15,19.4a4.39,4.39,0,1,0-4.4-4.28A4.39,4.39,0,0,0,15,19.4Z"/><path class="cls-1" d="M1,16.42a.66.66,0,0,1,.54-.32l1.27-.17a.38.38,0,0,0,.35-.25c.19-.41.4-.81.6-1.22a.47.47,0,0,1,.43-.33c.23,0,.35.14.45.33.19.4.39.78.57,1.18a.44.44,0,0,0,.41.29c.45.05.9.13,1.35.2.2,0,.38.12.39.31a.7.7,0,0,1-.16.48c-.32.35-.68.66-1,1a.41.41,0,0,0-.1.32c.06.47.14.94.23,1.4a.49.49,0,0,1-.17.51.48.48,0,0,1-.54,0c-.39-.22-.79-.41-1.18-.63a.41.41,0,0,0-.45,0c-.4.23-.81.43-1.21.64a.45.45,0,0,1-.53,0,.48.48,0,0,1-.17-.54c.09-.44.16-.89.24-1.34a.38.38,0,0,0-.12-.38c-.41-.4-.8-.81-1.19-1.21ZM3.07,19c.3-.15.57-.28.83-.43a.57.57,0,0,1,.59,0l.83.43c-.05-.3-.08-.57-.14-.84a.63.63,0,0,1,.22-.68c.2-.18.38-.4.59-.61-.3-.05-.57-.1-.84-.12a.64.64,0,0,1-.55-.39c-.11-.26-.25-.51-.39-.81-.15.3-.28.54-.39.79a.63.63,0,0,1-.59.41c-.26,0-.53.08-.81.12.21.22.4.44.6.62a.63.63,0,0,1,.21.64C3.17,18.41,3.13,18.68,3.07,19Z"/><path class="cls-1" d="M29,16.64a2.13,2.13,0,0,1-.21.31l-1,.95a.35.35,0,0,0-.13.38c.09.46.18.93.23,1.4a.6.6,0,0,1-.18.46.51.51,0,0,1-.47,0,11.94,11.94,0,0,1-1.18-.61.47.47,0,0,0-.55,0c-.38.22-.77.41-1.16.61a.45.45,0,0,1-.53,0,.47.47,0,0,1-.16-.52c.08-.44.14-.88.23-1.31a.45.45,0,0,0-.15-.46c-.33-.3-.64-.62-1-.93a.46.46,0,0,1-.18-.51.48.48,0,0,1,.44-.31c.46-.06.92-.12,1.37-.21a.44.44,0,0,0,.3-.21c.23-.41.43-.83.63-1.24.09-.19.21-.33.42-.33s.36.14.46.33c.19.39.39.78.57,1.18a.48.48,0,0,0,.43.3c.46,0,.92.12,1.38.2C28.86,16.18,29,16.34,29,16.64Zm-1.41.23-.87-.13a.56.56,0,0,1-.52-.37c-.12-.26-.26-.52-.4-.81a7.19,7.19,0,0,0-.39.79.65.65,0,0,1-.57.4c-.27,0-.54.08-.84.12.23.23.41.44.62.62a.61.61,0,0,1,.2.66c-.05.27-.09.54-.15.85.29-.15.55-.27.79-.41a.62.62,0,0,1,.67,0c.24.14.5.26.79.41-.06-.33-.1-.6-.16-.88a.6.6,0,0,1,.2-.61C27.17,17.32,27.35,17.11,27.59,16.87Z"/><path class="cls-1" d="M12.86,6.59c.08-.46.18-1,.24-1.44A.45.45,0,0,0,13,4.8c-.32-.34-.66-.66-1-1-.16-.14-.26-.32-.16-.5a.67.67,0,0,1,.4-.3c.45-.1.9-.15,1.35-.21A.39.39,0,0,0,14,2.55c.19-.41.4-.81.6-1.22a.46.46,0,0,1,.87,0c.2.42.41.83.61,1.25a.36.36,0,0,0,.32.24c.47.05.94.11,1.41.2a.53.53,0,0,1,.37.29.61.61,0,0,1-.13.48c-.3.34-.64.65-1,1a.41.41,0,0,0-.15.45c.09.43.15.87.23,1.31A.49.49,0,0,1,17,7a.48.48,0,0,1-.56,0c-.41-.22-.81-.44-1.23-.65a.44.44,0,0,0-.34,0c-.45.21-.87.45-1.31.67S12.84,7,12.86,6.59Zm.36-2.84.64.66A.55.55,0,0,1,14,5c-.06.29-.1.59-.15.93.29-.15.55-.27.79-.41a.61.61,0,0,1,.66,0c.24.14.49.26.78.41C16.06,5.54,16,5.25,16,5a.57.57,0,0,1,.18-.57c.22-.19.44-.4.69-.64l-.93-.14a.58.58,0,0,1-.49-.34c-.12-.27-.26-.53-.42-.84-.15.31-.28.56-.4.83a.57.57,0,0,1-.51.35Z"/><path class="cls-1" d="M3.89,11.2c.08-.46.18-1,.25-1.46A.5.5,0,0,0,4,9.39c-.32-.34-.65-.66-1-1-.15-.14-.26-.32-.16-.5a.69.69,0,0,1,.41-.3c.44-.1.9-.15,1.35-.21A.4.4,0,0,0,5,7.15c.19-.42.4-.82.6-1.23A.47.47,0,0,1,6,5.6a.49.49,0,0,1,.44.32c.2.42.41.84.6,1.26a.38.38,0,0,0,.33.23,13.15,13.15,0,0,1,1.38.21.58.58,0,0,1,.39.3A.62.62,0,0,1,9,8.4c-.31.34-.66.66-1,1a.34.34,0,0,0-.11.38c.09.45.16.89.23,1.34a.47.47,0,0,1-.15.52.48.48,0,0,1-.56,0C7,11.4,6.62,11.18,6.2,11a.4.4,0,0,0-.34,0c-.44.21-.87.45-1.31.67S3.89,11.62,3.89,11.2Zm1-.73c.29-.14.54-.26.77-.4a.62.62,0,0,1,.71,0c.23.13.48.24.76.39-.06-.34-.09-.63-.15-.91A.53.53,0,0,1,7.18,9c.22-.19.43-.4.69-.64L7,8.22a.62.62,0,0,1-.56-.4C6.31,7.57,6.18,7.32,6,7c-.16.31-.29.57-.41.83a.59.59,0,0,1-.5.36l-.87.12L4.89,9a.54.54,0,0,1,.18.54C5,9.84,5,10.13,4.91,10.47Z"/><path class="cls-1" d="M21.83,11.22c.07-.46.15-1,.25-1.46A.36.36,0,0,0,22,9.38l-1-1c-.16-.15-.26-.33-.15-.51a.68.68,0,0,1,.41-.29c.45-.1.92-.13,1.37-.22a.54.54,0,0,0,.32-.23c.22-.4.42-.81.61-1.22.1-.2.22-.34.45-.34a.5.5,0,0,1,.43.33c.19.4.4.8.59,1.2a.4.4,0,0,0,.38.28,12.6,12.6,0,0,1,1.35.21.59.59,0,0,1,.38.28.64.64,0,0,1-.13.49c-.31.35-.68.66-1,1a.45.45,0,0,0-.11.35c.05.45.14.9.22,1.34a.5.5,0,0,1-.15.55.51.51,0,0,1-.57,0c-.39-.22-.79-.41-1.18-.63a.38.38,0,0,0-.42,0c-.42.24-.85.46-1.28.68A.44.44,0,0,1,21.83,11.22Zm1-.75c.3-.15.56-.28.81-.42a.57.57,0,0,1,.6,0l.82.43c-.06-.33-.08-.62-.15-.89A.57.57,0,0,1,25.14,9c.2-.19.4-.41.62-.63l-.85-.12a.63.63,0,0,1-.55-.38c-.11-.26-.25-.51-.4-.81-.14.29-.27.52-.37.76a.64.64,0,0,1-.6.43l-.81.12c.23.24.42.45.63.65a.55.55,0,0,1,.19.56C22.93,9.84,22.9,10.14,22.85,10.47Z"/></g></svg>