<?xml version="1.0" encoding="utf-8"?>
<!-- Generator: Adobe Illustrator 24.0.1, SVG Export Plug-In . SVG Version: 6.00 Build 0)  -->
<svg version="1.1" id="Camada_1" xmlns="http://www.w3.org/2000/svg" xmlns:xlink="http://www.w3.org/1999/xlink" x="0px" y="0px"
	 viewBox="0 0 34.7 22.3" style="enable-background:new 0 0 34.7 22.3;" xml:space="preserve">
<style type="text/css">
	.st0{fill:#8F1B59;}
</style>
<g>
	<path class="st0" d="M15.6,21.6c0.7-1.8,0.7-3.5,0.5-5.2c-0.3-2.1-1.4-3.7-2.7-5.2C12.1,9.8,10.9,8.4,9.7,7C8.7,5.9,8.5,4.4,8.9,3
		c0.4-1.8,1.9-2.9,3.8-2.6c0.4,0.1,0.8,0.2,1.1,0.2c-0.1,0.8-0.3,1.6-0.4,2.4c-0.4,2.9,0.5,5.3,2.5,7.4c1.3,1.3,2.5,2.7,3.7,4.1
		c1.1,1.3,1.4,2.9,1.1,4.5c-0.3,2-1.8,3-3.9,2.7C16.4,21.8,16,21.7,15.6,21.6z"/>
	<path class="st0" d="M0.8,0.7c1.2,0,2.3,0,3.5,0c0,0.2,0,0.3,0,0.5c0,6.6,0,13.2,0,19.8c0,0.5-0.1,0.6-0.6,0.5c-1,0-2,0-3,0
		C0.8,14.6,0.8,7.7,0.8,0.7z"/>
	<path class="st0" d="M30.8,13.7c-2-4.4-3.9-8.7-5.8-13c2,0,3.9,0,5.8,0C30.8,5,30.8,9.3,30.8,13.7z"/>
	<path class="st0" d="M8,10.8c1.4,1.5,2.9,2.8,3.9,4.6c0.9,1.6,1,3.4,0.2,5c-0.7,1.5-2.7,1.7-3.9,1.2c-0.1,0-0.2-0.2-0.2-0.3
		c0-3.5,0-6.9,0-10.4C8,10.9,8,10.9,8,10.8z"/>
	<path class="st0" d="M30.7,21.5c-1.9,0-3.8,0-5.7,0c0-4.3,0-8.5,0-12.9C26.9,13,28.8,17.2,30.7,21.5z"/>
	<path class="st0" d="M21.3,11c-1.3-1.5-2.6-3-3.8-4.6c-1.1-1.5-0.8-3.9,0.3-5.1c0.8-0.9,2.1-1.2,3.3-0.8c0.3,0.1,0.3,0.3,0.3,0.6
		c0,2.8,0,5.6,0,8.4c0,0.5,0,0.9,0,1.4C21.4,11,21.4,11,21.3,11z"/>
</g>
<rect x="-617.9" y="-116" class="st0" width="189" height="145"/>
</svg>
